<?xml version="1.0" encoding="UTF-8"?>
<svg width="380px" height="250px" viewBox="0 0 380 250" version="1.1" xmlns="http://www.w3.org/2000/svg" xmlns:xlink="http://www.w3.org/1999/xlink">
    <!-- Generator: Sketch 39.1 (31720) - http://www.bohemiancoding.com/sketch -->
    <title>1024</title>
    <desc>Created with Sketch.</desc>
    <defs></defs>
    <g id="Page-1" stroke="none" stroke-width="1" fill="none" fill-rule="evenodd">
        <g id="1024">
            <path d="M202.015646,117.875896 L170.765896,117.875896 C169.613555,117.875896 168.681913,118.831898 168.681913,120.009901 L156.182012,120.009901 C155.029671,120.009901 154.098029,120.965903 154.098029,122.141909 L154.098029,122.437905 C154.098029,129.213679 159.394987,134.941905 165.666437,134.941905 L170.861895,134.941905 C171.150953,135.353904 171.402891,135.795917 171.607989,136.263882 C172.74858,138.837847 172.420483,143.103656 170.28185,145.609883 L168.682263,145.609883 C167.529922,145.609883 166.598279,146.565884 166.598279,147.741891 C166.598279,148.919895 167.529922,149.875896 168.682263,149.875896 L189.516096,149.875896 C190.668437,149.875896 191.598129,148.919895 191.598129,147.741891 C191.598129,146.565884 190.668437,145.609883 189.516096,145.609883 L187.916509,145.609883 C185.777876,143.103912 185.449728,138.837693 186.590369,136.263882 C186.797398,135.789885 187.051306,135.341878 187.303263,134.987883 C187.309124,134.975881 187.324748,134.957885 187.336463,134.941885 L191.598129,134.941885 C199.354067,134.941885 204.098029,125.273838 204.098029,120.009993 C204.098029,118.83199 203.168336,117.875988 202.015996,117.875988" id="Shape" fill="#B2B2B2" opacity="0.76" transform="translate(179.098029, 133.875896) rotate(-316.000000) translate(-179.098029, -133.875896) "></path>
            <path d="M169.979505,207.071366 L154.282751,207.071366 C153.70393,207.071366 153.235966,207.538542 153.235966,208.114204 L146.957264,208.114204 C146.378444,208.114204 145.91048,208.58138 145.91048,209.156067 L145.91048,209.300713 C145.91048,212.611873 148.571142,215.411123 151.721292,215.411123 L154.330972,215.411123 C154.476166,215.612457 154.602714,215.828458 154.705735,216.057142 C155.278654,217.314978 155.11385,219.399578 154.039615,220.624312 L153.236142,220.624312 C152.657321,220.624312 152.189357,221.091487 152.189357,221.666174 C152.189357,222.241837 152.657321,222.709012 153.236142,222.709012 L163.700979,222.709012 C164.2798,222.709012 164.746785,222.241837 164.746785,221.666174 C164.746785,221.091487 164.2798,220.624312 163.700979,220.624312 L162.897506,220.624312 C161.823271,219.399703 161.658442,217.314902 162.231386,216.057142 C162.335377,215.825511 162.462915,215.60658 162.589473,215.433591 C162.592417,215.427726 162.600265,215.418931 162.606149,215.411113 L164.746785,215.411113 C168.642593,215.411113 171.025486,210.686566 171.025486,208.114249 C171.025486,207.538587 170.558501,207.071412 169.97968,207.071412" id="Shape" fill="#B2B2B2" opacity="0.9" transform="translate(158.467983, 214.890189) rotate(-84.000000) translate(-158.467983, -214.890189) "></path>
            <path d="M67.9852925,43.315796 L34.8605578,43.315796 C33.6390766,43.315796 32.6515355,44.3016726 32.6515355,45.5164887 L19.4016406,45.5164887 C18.1801593,45.5164887 17.1926188,46.5023653 17.1926188,47.7151222 L17.1926188,48.020368 C17.1926188,55.0078842 22.8073944,60.9151179 29.4551311,60.9151179 L34.962317,60.9151179 C35.2687185,61.339992 35.5357724,61.7958174 35.7531767,62.2784069 C36.962203,64.9328077 36.6144198,69.331923 34.3474689,71.9164698 L32.6519065,71.9164698 C31.4304253,71.9164698 30.4428842,72.9023463 30.4428842,74.1151033 C30.4428842,75.3299195 31.4304253,76.315796 32.6519065,76.315796 L54.7357696,76.315796 C55.9572508,76.315796 56.9427249,75.3299195 56.9427249,74.1151033 C56.9427249,72.9023463 55.9572508,71.9164698 54.7357696,71.9164698 L53.0402072,71.9164698 C50.7732564,69.332187 50.4254201,64.9326493 51.6344995,62.2784069 C51.8539499,61.7895976 52.1230922,61.3275894 52.3901674,60.962532 C52.3963793,60.9501558 52.4129414,60.9315967 52.4253591,60.9150968 L56.9427249,60.9150968 C65.1640191,60.9150968 70.1926188,50.9449239 70.1926188,45.5165838 C70.1926188,44.3017676 69.2071447,43.3158911 67.9856635,43.3158911" id="Shape" fill="#B2B2B2" opacity="0.87" transform="translate(43.692619, 59.815796) rotate(-23.000000) translate(-43.692619, -59.815796) "></path>
            <path d="M77.3643254,215.357639 L70.7312268,221.731353 C70.3000755,222.145645 69.7341929,222.352815 69.1683091,222.352815 C68.6024265,222.352815 68.0365439,222.145669 67.6053926,221.731353 C66.7389498,220.900781 66.7389498,219.556336 67.6053926,218.725764 L72.673504,213.853851 L67.6053926,208.983926 C66.7389498,208.153355 66.7389498,206.808909 67.6053926,205.978338 C68.4697647,205.147766 69.8668548,205.147766 70.7312268,205.978338 L77.3643254,212.352051 C78.2286987,213.182622 78.2286987,214.527068 77.3643254,215.357639 L77.3643254,215.357639 L77.3643254,215.357639 Z M64.630898,208.153304 L60.2095394,220.90073 C59.9006862,221.789073 59.0383998,222.352764 58.1118353,222.352764 C57.8796774,222.352764 57.6454438,222.318902 57.4132909,222.245207 C56.2545673,221.872742 55.6285618,220.667688 56.0162008,219.556315 L60.4375594,206.808889 C60.8251811,205.695477 62.0668074,205.087986 63.2338079,205.464443 C64.3925315,205.836908 65.018537,207.039923 64.630898,208.153334 L64.630898,208.153304 L64.630898,208.153304 Z M53.0893057,218.7714 C53.9246523,219.625886 53.8852779,220.970332 52.9960282,221.775 C52.5669514,222.161405 52.0238819,222.352611 51.4786935,222.352611 C50.8920624,222.352611 50.3054843,222.129532 49.870194,221.68536 L43.7120254,215.401389 C43.4964486,215.206195 43.3181827,214.96718 43.1958847,214.696303 C42.8455727,213.915548 43.0051806,213.013234 43.6083792,212.395801 L49.8705544,206.022087 C50.71004,205.16959 52.1071301,205.129767 52.9963897,205.936439 C53.8856493,206.741108 53.9250237,208.085554 53.0896673,208.938051 L48.2640602,213.847799 L53.0893057,218.7714 L53.0893057,218.7714 Z" id="Page-1" fill="#BBBBBB" opacity="0.86" transform="translate(60.512605, 213.852815) rotate(-8.000000) translate(-60.512605, -213.852815) "></path>
            <path d="M366.06505,135.357673 L359.431952,141.731388 C359.0008,142.145679 358.434918,142.352849 357.869034,142.352849 C357.303151,142.352849 356.737269,142.145704 356.306118,141.731388 C355.439675,140.900816 355.439675,139.556371 356.306118,138.725799 L361.374229,133.853886 L356.306118,128.98396 C355.439675,128.153389 355.439675,126.808943 356.306118,125.978372 C357.17049,125.147801 358.56758,125.147801 359.431952,125.978372 L366.06505,132.352086 C366.929424,133.182657 366.929424,134.527102 366.06505,135.357673 L366.06505,135.357673 L366.06505,135.357673 Z M353.331623,128.153338 L348.910264,140.900765 C348.601411,141.789107 347.739125,142.352798 346.81256,142.352798 C346.580402,142.352798 346.346169,142.318936 346.114016,142.245241 C344.955292,141.872776 344.329287,140.667722 344.716926,139.55635 L349.138284,126.808923 C349.525906,125.695512 350.767532,125.08802 351.934533,125.464477 C353.093256,125.836942 353.719262,127.039957 353.331623,128.153369 L353.331623,128.153338 L353.331623,128.153338 Z M341.790031,138.771435 C342.625377,139.62592 342.586003,140.970366 341.696753,141.775034 C341.267676,142.16144 340.724607,142.352645 340.179418,142.352645 C339.592787,142.352645 339.006209,142.129566 338.570919,141.685395 L332.41275,135.401423 C332.197173,135.206229 332.018908,134.967215 331.89661,134.696337 C331.546298,133.915583 331.705906,133.013269 332.309104,132.395835 L338.571279,126.022121 C339.410765,125.169624 340.807855,125.129801 341.697115,125.936474 C342.586374,126.741142 342.625749,128.085588 341.790392,128.938085 L336.964785,133.847833 L341.790031,138.771435 L341.790031,138.771435 Z" id="Page-1" fill="#BBBBBB" opacity="0.86" transform="translate(349.213330, 133.852849) rotate(313.000000) translate(-349.213330, -133.852849) "></path>
            <path d="M285.124071,40.3277653 L279.249041,45.9516308 C278.867164,46.3171819 278.365954,46.4999794 277.864742,46.4999794 C277.363532,46.4999794 276.862322,46.3172038 276.480445,45.9516308 C275.713024,45.218773 275.713024,44.0324983 276.480445,43.2996405 L280.969344,39.0008938 L276.480445,34.7039009 C275.713024,33.9710438 275.713024,32.7847682 276.480445,32.0519111 C277.246032,31.3190541 278.483454,31.3190541 279.249041,32.0519111 L285.124071,37.675776 C285.889659,38.4086327 285.889659,39.5949085 285.124071,40.3277653 L285.124071,40.3277653 L285.124071,40.3277653 Z M273.845893,33.9709988 L269.929832,45.218728 C269.656276,46.0025599 268.892537,46.4999344 268.071866,46.4999344 C267.86624,46.4999344 267.658776,46.470056 267.453155,46.405031 C266.426857,46.0763854 265.872395,45.0131022 266.215732,44.0324795 L270.131793,32.7847502 C270.475115,31.8023285 271.574841,31.2663067 272.60847,31.5984747 C273.634768,31.9271199 274.18923,32.9886041 273.845893,33.9710258 L273.845893,33.9709988 L273.845893,33.9709988 Z M263.623339,43.3399077 C264.363218,44.0938654 264.328343,45.2801411 263.540722,45.9901423 C263.160683,46.3310884 262.679678,46.4997994 262.196797,46.4997994 C261.67721,46.4997994 261.157669,46.3029646 260.772126,45.9110487 L255.317748,40.3663678 C255.126809,40.194138 254.968916,39.9832429 254.860595,39.7442335 C254.550319,39.0553322 254.691686,38.2591727 255.225947,37.7143785 L260.772445,32.0905134 C261.51599,31.3383101 262.753412,31.3031723 263.541042,32.0149421 C264.328672,32.7249438 264.363547,33.9112193 263.62366,34.6634225 L259.349551,38.9955534 L263.623339,43.3399077 L263.623339,43.3399077 Z" id="Page-1" fill="#BBBBBB" opacity="0.75" transform="translate(270.198262, 38.999979) rotate(-337.000000) translate(-270.198262, -38.999979) "></path>
            <path d="M109.55672,124.20656 C107.705947,124.20656 105.983054,124.8914 104.728029,126.105195 C103.473209,124.890461 101.750316,124.20656 99.8993388,124.20656 C96.2206409,124.20656 93.2281038,126.955072 93.2281038,130.333271 C93.2281038,136.259318 103.976442,141.827924 104.433631,142.062619 L104.715149,142.206553 L105.002647,142.072704 C105.460855,141.858179 116.228104,136.76367 116.228104,130.333264 C116.228104,126.954831 113.235312,124.206553 109.55687,124.206553 L109.55672,124.20656 L109.55672,124.20656 L109.55672,124.20656 Z M104.741062,140.940543 C103.057014,140.027439 94.4391739,135.117292 94.4391739,130.333506 C94.4391739,127.568565 96.8888887,125.318779 99.8995944,125.318779 C101.618603,125.318779 103.203906,126.040278 104.247077,127.299018 L104.728234,127.880263 L105.210387,127.299018 C106.253558,126.040278 107.837736,125.318779 109.55787,125.318779 C112.56855,125.318779 115.018289,127.568541 115.018289,130.333506 C115.01729,135.54256 106.43219,140.095409 104.74119,140.940543 L104.741062,140.940543 L104.741062,140.940543 L104.741062,140.940543 Z" id="Shape" fill="#DEDEDE" opacity="0.94" transform="translate(104.728104, 133.206553) rotate(-342.000000) translate(-104.728104, -133.206553) "></path>
            <path d="M358.871251,34.0520515 C357.100948,34.0520515 355.452963,34.7368913 354.252504,35.9506865 C353.052241,34.7359525 351.404256,34.0520515 349.633757,34.0520515 C346.115002,34.0520515 343.252576,36.8005638 343.252576,40.1787625 C343.252576,46.1048094 353.533595,51.6734159 353.970906,51.9081109 L354.240184,52.0520444 L354.515182,51.9181957 C354.953468,51.7036704 365.252576,46.6091617 365.252576,40.1787555 C365.252576,36.800322 362.389906,34.0520444 358.871395,34.0520444 L358.871251,34.0520515 L358.871251,34.0520515 L358.871251,34.0520515 Z M354.264971,50.7860344 C352.654141,49.8729303 344.41099,44.9627839 344.41099,40.1789972 C344.41099,37.4140563 346.754196,35.1642708 349.634001,35.1642708 C351.27827,35.1642708 352.794647,35.8857699 353.792463,37.1445092 L354.2527,37.7257547 L354.71389,37.1445092 C355.711706,35.8857699 357.227007,35.1642708 358.872351,35.1642708 C361.752132,35.1642708 364.095361,37.4140329 364.095361,40.1789972 C364.094405,45.3880511 355.882571,49.9409002 354.265093,50.7860344 L354.264971,50.7860344 L354.264971,50.7860344 L354.264971,50.7860344 Z" id="Shape" fill="#DEDEDE" opacity="0.94" transform="translate(354.252576, 43.052044) rotate(-342.000000) translate(-354.252576, -43.052044) "></path>
            <path d="M264.99324,200.808765 C262.901063,200.808765 260.953444,201.645791 259.53472,203.129319 C258.116227,201.644644 256.168609,200.808765 254.076201,200.808765 C249.917673,200.808765 246.534805,204.168057 246.534805,208.296967 C246.534805,215.539913 258.685101,222.345988 259.201923,222.632837 L259.52016,222.808756 L259.845158,222.645163 C260.363133,222.382965 272.534805,216.156344 272.534805,208.296958 C272.534805,204.167762 269.151649,200.808756 264.99341,200.808756 L264.99324,200.808765 L264.99324,200.808765 L264.99324,200.808765 Z M259.549454,221.26141 C257.645746,220.145394 247.90384,214.144104 247.90384,208.297254 C247.90384,204.917882 250.673083,202.168144 254.07649,202.168144 C256.019717,202.168144 257.811798,203.049976 258.991035,204.588435 L259.534951,205.298846 L260.079995,204.588435 C261.259231,203.049976 263.050042,202.168144 264.99454,202.168144 C268.397917,202.168144 271.167188,204.917853 271.167188,208.297254 C271.166058,214.663875 261.461163,220.228469 259.549598,221.26141 L259.549454,221.26141 L259.549454,221.26141 L259.549454,221.26141 Z" id="Shape" fill="#DEDEDE" opacity="0.92" transform="translate(259.534805, 211.808756) rotate(23.000000) translate(-259.534805, -211.808756) "></path>
            <path d="M185.136027,46.1809819 C182.641507,46.1809819 180.319347,47.1701949 178.627792,48.9234547 C176.936512,47.1688389 174.614352,46.1809819 172.119557,46.1809819 C167.161312,46.1809819 163.127892,50.1510552 163.127892,55.0306756 C163.127892,63.5905211 177.614784,71.6340638 178.230994,71.9730676 L178.610432,72.1809717 L178.997929,71.9876346 C179.615514,71.6777647 194.127892,64.31903 194.127892,55.0306654 C194.127892,50.150706 190.09413,46.1809717 185.136229,46.1809717 L185.136027,46.1809819 L185.136027,46.1809819 L185.136027,46.1809819 Z M178.645358,70.3522905 C176.375553,69.0333624 164.760204,61.9409287 164.760204,55.0310146 C164.760204,51.0372111 168.061994,47.7875208 172.119901,47.7875208 C174.436826,47.7875208 176.573539,48.8296863 177.979552,50.6478652 L178.628067,51.487442 L179.277926,50.6478652 C180.683939,48.8296863 182.819136,47.7875208 185.137577,47.7875208 C189.19545,47.7875208 192.497272,51.0371772 192.497272,55.0310146 C192.495925,62.5552036 180.924704,69.1315412 178.64553,70.3522905 L178.645358,70.3522905 L178.645358,70.3522905 L178.645358,70.3522905 Z" id="Shape" fill="#DEDEDE" transform="translate(178.627892, 59.180972) rotate(-54.000000) translate(-178.627892, -59.180972) "></path>
            <g id="Page-1" transform="translate(114.000000, 42.000000) rotate(21.000000) translate(-114.000000, -42.000000) translate(101.000000, 29.000000)" fill="#9D9D9D">
                <path d="M13,26 C5.8318,26 -1.42108547e-14,20.1682 -1.42108547e-14,13 C-1.42108547e-14,5.8318 5.8318,-2.13162821e-14 13,-2.13162821e-14 C20.1682,-2.13162821e-14 26,5.8318 26,13 C26,20.1682 20.1682,26 13,26 L13,26 Z M13,1.0075 C6.38716,1.0075 1.0075,6.38716 1.0075,13 C1.0075,19.61284 6.38716,24.9925 13,24.9925 C19.61284,24.9925 24.9925,19.61284 24.9925,13 C24.9925,6.38716 19.61284,1.0075 13,1.0075 L13,1.0075 Z" id="Fill-1"></path>
                <path d="M20.51972,16.8766 C20.3155784,16.6704278 19.975332,16.6663666 19.738706,16.8573054 C16.058146,19.9630054 9.942946,19.9640454 6.261346,16.8583194 C6.0247044,16.6673806 5.684458,16.672461 5.480332,16.8776166 C5.277207,17.0837888 5.309707,17.4331586 5.5727542,17.6464366 C9.6087342,21.0844166 16.3910942,21.0833766 20.4252542,17.6464366 C20.6903242,17.4321394 20.7228242,17.0827566 20.519707,16.8766026 L20.51972,16.8766 Z" id="Fill-2"></path>
                <path d="M9.80382,11.1566 C9.5671784,11.3191 9.243208,11.2581612 9.080708,11.0215222 L6.940778,7.8945022 C6.778278,7.6578606 6.8392168,7.3349042 7.0758558,7.1713902 C7.3124974,7.0088902 7.6364678,7.069829 7.7989678,7.306468 L9.9388978,10.433488 C10.1024144,10.6711436 10.0414756,10.99514 9.80382,11.1566 L9.80382,11.1566 Z" id="Fill-3"></path>
                <path d="M7.6466,7.1734 C7.4099584,7.0109 7.085988,7.0718388 6.923488,7.3084778 L4.783558,10.4344578 C4.621058,10.6710994 4.6819942,10.9940558 4.9186358,11.1575698 C5.1552774,11.3200698 5.4792478,11.2591336 5.6417478,11.022492 L7.7816778,7.895472 C7.9441778,7.6588304 7.8842556,7.33486 7.6466,7.173374 L7.6466,7.1734 Z" id="Fill-4"></path>
                <path d="M21.08132,11.0266 C20.8446784,11.1891 20.520708,11.1281612 20.358208,10.8915222 L18.218278,7.7645022 C18.055778,7.5278606 18.1167168,7.2049042 18.3543724,7.0413902 C18.591014,6.8788902 18.9149844,6.939829 19.0774844,7.176468 L21.2174144,10.303488 C21.3788978,10.5411436 21.3179616,10.86514 21.08132,11.0266 L21.08132,11.0266 Z" id="Fill-5"></path>
                <path d="M18.9241,7.0434 C18.6874584,6.8809 18.363488,6.9418388 18.200988,7.1784778 L16.061058,10.3054978 C15.898558,10.5421394 15.9594942,10.8650958 16.1971524,11.0286098 C16.433794,11.1911098 16.7577644,11.130171 16.9202644,10.893532 L19.0601944,7.766512 C19.2216778,7.5288564 19.1617556,7.20486 18.9241,7.0434 L18.9241,7.0434 Z" id="Fill-6"></path>
            </g>
            <g id="Page-1" transform="translate(39.907695, 143.081268) rotate(-16.000000) translate(-39.907695, -143.081268) translate(29.407695, 132.581268)" fill="#9D9D9D">
                <path d="M10.1084042,20.2168085 C4.53463014,20.2168085 1.77635684e-14,15.6821783 1.77635684e-14,10.1084042 C1.77635684e-14,4.53463014 4.53463014,-2.84217094e-14 10.1084042,-2.84217094e-14 C15.6821783,-2.84217094e-14 20.2168085,4.53463014 20.2168085,10.1084042 C20.2168085,15.6821783 15.6821783,20.2168085 10.1084042,20.2168085 L10.1084042,20.2168085 Z M10.1084042,0.783401328 C4.96646117,0.783401328 0.783401328,4.96646117 0.783401328,10.1084042 C0.783401328,15.2503473 4.96646117,19.4334071 10.1084042,19.4334071 C15.2503473,19.4334071 19.4334071,15.2503473 19.4334071,10.1084042 C19.4334071,4.96646117 15.2503473,0.783401328 10.1084042,0.783401328 L10.1084042,0.783401328 Z" id="Fill-1"></path>
                <path d="M15.9555096,13.1227304 C15.7967753,12.9624171 15.53221,12.9592593 15.3482169,13.1077275 C12.4863255,15.5226252 7.73133211,15.5234339 4.86863203,13.1085159 C4.68462673,12.9600477 4.42006148,12.9639981 4.26133932,13.1235208 C4.1033955,13.2838341 4.12866652,13.5554934 4.33320401,13.7213319 C7.47145919,16.3946005 12.7452158,16.3937918 15.8820558,13.7213319 C16.0881662,13.5547009 16.1134372,13.2830315 15.9554995,13.1227324 L15.9555096,13.1227304 Z" id="Fill-2"></path>
                <path d="M7.62315197,8.67503251 C7.43914666,8.80138756 7.18723714,8.75400341 7.06088209,8.57000013 L5.39693767,6.13852457 C5.27058262,5.95451927 5.31796677,5.7033982 5.50197005,5.5762547 C5.68597536,5.44989964 5.93788488,5.4972838 6.06423993,5.68128708 L7.72818435,8.11276263 C7.85532988,8.29755639 7.80794573,8.54948613 7.62315197,8.67503251 L7.62315197,8.67503251 Z" id="Fill-3"></path>
                <path d="M5.94576337,5.57781745 C5.76175806,5.4514624 5.50984854,5.49884656 5.38349349,5.68284984 L3.71954907,8.11351672 C3.59319402,8.29752202 3.64057615,8.54864309 3.82458146,8.6757866 C4.00858676,8.80214165 4.26049628,8.75475952 4.38685133,8.57075421 L6.05079575,6.13927866 C6.17715081,5.95527336 6.13055713,5.70336383 5.94576337,5.57779724 L5.94576337,5.57781745 Z" id="Fill-4"></path>
                <path d="M16.3921926,8.57394847 C16.2081873,8.70030352 15.9562778,8.65291937 15.8299228,8.46891608 L14.1659783,6.03744053 C14.0396233,5.85343523 14.0870074,5.60231416 14.2718012,5.47517065 C14.4558065,5.3488156 14.707716,5.39619976 14.8340711,5.58020304 L16.4980155,8.01167859 C16.6235801,8.19647235 16.5761979,8.44840209 16.3921926,8.57394847 L16.3921926,8.57394847 Z" id="Fill-5"></path>
                <path d="M14.714804,5.47673341 C14.5307987,5.35037836 14.2788892,5.39776251 14.1525342,5.5817658 L12.4885897,8.01324135 C12.3622347,8.19724665 12.4096168,8.44836772 12.5944126,8.57551123 C12.7784179,8.70186628 13.0303274,8.65448212 13.1566825,8.47047884 L14.8206269,6.03900329 C14.9461915,5.85420953 14.8995978,5.60227979 14.714804,5.47673341 L14.714804,5.47673341 Z" id="Fill-6"></path>
            </g>
            <g id="Page-1" transform="translate(343.987440, 209.987440) rotate(6.000000) translate(-343.987440, -209.987440) translate(333.487440, 199.487440)" fill="#9D9D9D">
                <path d="M10.1084042,20.2168085 C4.53463014,20.2168085 1.77635684e-14,15.6821783 1.77635684e-14,10.1084042 C1.77635684e-14,4.53463014 4.53463014,-2.84217094e-14 10.1084042,-2.84217094e-14 C15.6821783,-2.84217094e-14 20.2168085,4.53463014 20.2168085,10.1084042 C20.2168085,15.6821783 15.6821783,20.2168085 10.1084042,20.2168085 L10.1084042,20.2168085 Z M10.1084042,0.783401328 C4.96646117,0.783401328 0.783401328,4.96646117 0.783401328,10.1084042 C0.783401328,15.2503473 4.96646117,19.4334071 10.1084042,19.4334071 C15.2503473,19.4334071 19.4334071,15.2503473 19.4334071,10.1084042 C19.4334071,4.96646117 15.2503473,0.783401328 10.1084042,0.783401328 L10.1084042,0.783401328 Z" id="Fill-1"></path>
                <path d="M15.9555096,13.1227304 C15.7967753,12.9624171 15.53221,12.9592593 15.3482169,13.1077275 C12.4863255,15.5226252 7.73133211,15.5234339 4.86863203,13.1085159 C4.68462673,12.9600477 4.42006148,12.9639981 4.26133932,13.1235208 C4.1033955,13.2838341 4.12866652,13.5554934 4.33320401,13.7213319 C7.47145919,16.3946005 12.7452158,16.3937918 15.8820558,13.7213319 C16.0881662,13.5547009 16.1134372,13.2830315 15.9554995,13.1227324 L15.9555096,13.1227304 Z" id="Fill-2"></path>
                <path d="M7.62315197,8.67503251 C7.43914666,8.80138756 7.18723714,8.75400341 7.06088209,8.57000013 L5.39693767,6.13852457 C5.27058262,5.95451927 5.31796677,5.7033982 5.50197005,5.5762547 C5.68597536,5.44989964 5.93788488,5.4972838 6.06423993,5.68128708 L7.72818435,8.11276263 C7.85532988,8.29755639 7.80794573,8.54948613 7.62315197,8.67503251 L7.62315197,8.67503251 Z" id="Fill-3"></path>
                <path d="M5.94576337,5.57781745 C5.76175806,5.4514624 5.50984854,5.49884656 5.38349349,5.68284984 L3.71954907,8.11351672 C3.59319402,8.29752202 3.64057615,8.54864309 3.82458146,8.6757866 C4.00858676,8.80214165 4.26049628,8.75475952 4.38685133,8.57075421 L6.05079575,6.13927866 C6.17715081,5.95527336 6.13055713,5.70336383 5.94576337,5.57779724 L5.94576337,5.57781745 Z" id="Fill-4"></path>
                <path d="M16.3921926,8.57394847 C16.2081873,8.70030352 15.9562778,8.65291937 15.8299228,8.46891608 L14.1659783,6.03744053 C14.0396233,5.85343523 14.0870074,5.60231416 14.2718012,5.47517065 C14.4558065,5.3488156 14.707716,5.39619976 14.8340711,5.58020304 L16.4980155,8.01167859 C16.6235801,8.19647235 16.5761979,8.44840209 16.3921926,8.57394847 L16.3921926,8.57394847 Z" id="Fill-5"></path>
                <path d="M14.714804,5.47673341 C14.5307987,5.35037836 14.2788892,5.39776251 14.1525342,5.5817658 L12.4885897,8.01324135 C12.3622347,8.19724665 12.4096168,8.44836772 12.5944126,8.57551123 C12.7784179,8.70186628 13.0303274,8.65448212 13.1566825,8.47047884 L14.8206269,6.03900329 C14.9461915,5.85420953 14.8995978,5.60227979 14.714804,5.47673341 L14.714804,5.47673341 Z" id="Fill-6"></path>
            </g>
            <g id="Page-1" transform="translate(269.698137, 130.044313) rotate(-103.000000) translate(-269.698137, -130.044313) translate(256.198137, 116.544313)" fill="#9D9D9D">
                <path d="M13.3803723,26.7607446 C6.00243501,26.7607446 -5.68434189e-14,20.7583096 -5.68434189e-14,13.3803723 C-5.68434189e-14,6.00243501 6.00243501,-5.68434189e-14 13.3803723,-5.68434189e-14 C20.7583096,-5.68434189e-14 26.7607446,6.00243501 26.7607446,13.3803723 C26.7607446,20.7583096 20.7583096,26.7607446 13.3803723,26.7607446 L13.3803723,26.7607446 Z M13.3803723,1.03697885 C6.57404451,1.03697885 1.03697885,6.57404451 1.03697885,13.3803723 C1.03697885,20.1867001 6.57404451,25.7237657 13.3803723,25.7237657 C20.1867001,25.7237657 25.7237657,20.1867001 25.7237657,13.3803723 C25.7237657,6.57404451 20.1867001,1.03697885 13.3803723,1.03697885 L13.3803723,1.03697885 Z" id="Fill-1"></path>
                <path d="M21.1201148,17.3703993 C20.9100002,17.1581946 20.5597984,17.1540146 20.3162488,17.3505402 C16.5279978,20.5471111 10.2338707,20.5481815 6.44454927,17.3515838 C6.20098368,17.1550583 5.85078187,17.1602873 5.64068326,17.3714457 C5.43161495,17.5836503 5.46506588,17.9432425 5.73580968,18.1627609 C9.88988007,21.7013341 16.8706879,21.7002637 21.022885,18.1627609 C21.2957108,17.9421935 21.3291617,17.5825879 21.1201015,17.370402 L21.1201148,17.3703993 Z" id="Fill-2"></path>
                <path d="M10.090674,11.4830355 C9.84710837,11.6502902 9.51365879,11.5875683 9.34640413,11.3440054 L7.14386105,8.12549065 C6.9766064,7.88192506 7.03932823,7.54951915 7.28289115,7.38122082 C7.52645674,7.21396617 7.85990632,7.276688 8.02716097,7.52025092 L10.2297041,10.7387657 C10.3980051,10.9833749 10.3352832,11.3168513 10.090674,11.4830355 L10.090674,11.4830355 Z" id="Fill-3"></path>
                <path d="M7.87033498,7.38328943 C7.62676939,7.21603478 7.29331981,7.27875661 7.12606515,7.52231953 L4.92352207,10.7397638 C4.75626742,10.9833294 4.81898657,11.3157354 5.06255217,11.4840337 C5.30611776,11.6512883 5.63956734,11.5885692 5.806822,11.3450036 L8.00936508,8.12648883 C8.17661973,7.88292324 8.11494424,7.54947365 7.87033498,7.38326267 L7.87033498,7.38328943 Z" id="Fill-4"></path>
                <path d="M21.6981469,11.3492318 C21.4545813,11.5164864 21.1211317,11.4537646 20.9538771,11.2102017 L18.751334,7.99168693 C18.5840794,7.74812134 18.6468012,7.41571542 18.8914105,7.2474171 C19.134976,7.08016245 19.4684256,7.14288428 19.6356803,7.3864472 L21.8382234,10.6049619 C22.0044317,10.8495712 21.9417125,11.1830476 21.6981469,11.3492318 L21.6981469,11.3492318 Z" id="Fill-5"></path>
                <path d="M19.4778079,7.24948571 C19.2342424,7.08223105 18.9007928,7.14495289 18.7335381,7.3885158 L16.530995,10.6070306 C16.3637404,10.8505961 16.4264595,11.1830021 16.6710715,11.3513004 C16.9146371,11.518555 17.2480866,11.4558332 17.4153413,11.2122703 L19.6178844,7.99375554 C19.7840927,7.74914627 19.7224172,7.41566993 19.4778079,7.24948571 L19.4778079,7.24948571 Z" id="Fill-6"></path>
            </g>
        </g>
    </g>
</svg>