<?xml version="1.0" encoding="UTF-8"?>
<svg width="1004px" height="1009px" viewBox="0 0 1004 1009" version="1.1" xmlns="http://www.w3.org/2000/svg" xmlns:xlink="http://www.w3.org/1999/xlink">
    <!-- Generator: Sketch 39.1 (31720) - http://www.bohemiancoding.com/sketch -->
    <title>1024</title>
    <desc>Created with Sketch.</desc>
    <defs></defs>
    <g id="Page-1" stroke="none" stroke-width="1" fill="none" fill-rule="evenodd">
        <g id="1024">
            <g transform="translate(0.000000, 3.000000)" id="Page-1">
                <g opacity="0.8" transform="translate(315.886693, 927.999127) rotate(121.000000) translate(-315.886693, -927.999127) translate(275.386693, 892.499127)" fill="#7B71E9">
                    <path d="M71.9351209,36.2907625 L71.9351209,35.3720225 C71.9351209,28.1125387 66.0138429,22.2086225 58.733011,22.2086225 L43.0724176,22.2051524 L43.0724176,16.5785799 C46.6259143,15.6390724 49.2510264,12.4045786 49.2510264,8.57377362 C49.2510264,4.00456862 45.5236912,0.291623625 40.9445209,0.291623625 C36.3653505,0.291623625 32.6380154,4.00802987 32.6380154,8.57377362 C32.6380154,12.4080399 35.2631275,15.6390724 38.8166242,16.5785799 L38.8166242,22.2051524 L23.1560308,22.2051524 C15.8751989,22.2051524 9.95036044,28.1090686 9.95036044,35.3685524 L9.95036044,36.2872924 C4.79742705,37.2857299 0.889043538,41.8168611 0.889043538,47.2425924 C0.889043538,52.6750686 4.80410288,57.2127674 9.96727253,58.2014424 C10.3114958,65.1558036 16.0937209,70.7098674 23.1551407,70.7098674 L58.7355033,70.7098674 C65.7938077,70.7098674 71.5762286,65.1560699 71.9233714,58.2014424 C77.0832495,57.2133886 80.9980418,52.6787961 80.9980418,47.2425924 C80.9980418,41.8170386 77.0899253,37.2857299 71.9331626,36.2908424 L71.9351209,36.2907625 L71.9351209,36.2907625 Z M9.9540989,53.8259875 C7.16903407,52.9281037 5.14545735,50.3176112 5.14545735,47.2459737 C5.14545735,44.1743362 7.16556264,41.5639325 9.9540989,40.66596 L9.9540989,53.8259875 L9.9540989,53.8259875 Z M36.8906044,8.5741375 C36.8906044,6.34500375 38.7090989,4.53184125 40.9447879,4.53184125 C43.1804769,4.53184125 44.9989714,6.34500375 44.9989714,8.5741375 C44.9989714,10.8032712 43.1804769,12.6164337 40.9447879,12.6164337 C38.7090989,12.6164337 36.8906044,10.8032712 36.8906044,8.5741375 L36.8906044,8.5741375 L36.8906044,8.5741375 Z M67.6830659,57.5463875 C67.6830659,62.4658 63.6671571,66.4702 58.733011,66.4702 L23.1562088,66.4667299 C18.2223297,66.4667299 14.2061538,62.4625961 14.2061538,57.5429174 L14.2061538,35.3731674 C14.2061538,30.4537549 18.2220626,26.4493549 23.1562088,26.4493549 L58.7365714,26.4493549 C63.6704505,26.4493549 67.6866264,30.4534886 67.6866264,35.3731674 L67.6830659,57.5463875 L67.6830659,57.5463875 Z M71.9353879,53.82652 L71.9353879,40.66312 C74.7204527,41.5610037 76.7440286,44.1714962 76.7440286,47.2431337 C76.7440286,50.3181437 74.7239242,52.9286362 71.9353879,53.8266087 L71.9353879,53.82652 L71.9353879,53.82652 Z" id="Fill-1"></path>
                    <path d="M56.4596703,35.569225 C53.0000802,35.569225 50.1836835,38.3773637 50.1836835,41.82681 C50.1836835,45.2762562 53.0000802,48.084395 56.4596703,48.084395 C59.9192604,48.084395 62.7356571,45.2762562 62.7356571,41.82681 C62.7356571,38.3739025 59.9192604,35.569225 56.4596703,35.569225 L56.4596703,35.569225 L56.4596703,35.569225 Z M56.4596703,43.8409912 C55.3435615,43.8409912 54.4395659,42.9396462 54.4395659,41.82681 C54.4395659,40.7139737 55.347033,39.8126287 56.4596703,39.8126287 C57.5757791,39.8126287 58.4797747,40.717435 58.4797747,41.82681 C58.4832551,42.936185 57.5757791,43.8409912 56.4596703,43.8409912 L56.4596703,43.8409912 L56.4596703,43.8409912 Z" id="Fill-2"></path>
                    <path d="M25.4304396,35.569225 C21.9708495,35.569225 19.1544527,38.3773637 19.1544527,41.82681 C19.1544527,45.2762562 21.9708495,48.084395 25.4304396,48.084395 C28.8900297,48.084395 31.7064264,45.2762562 31.7064264,41.82681 C31.7064264,38.3739025 28.8900297,35.569225 25.4304396,35.569225 L25.4304396,35.569225 L25.4304396,35.569225 Z M25.4304396,43.8409912 C24.3143308,43.8409912 23.4103352,42.9396462 23.4103352,41.82681 C23.4103352,40.7139737 24.3178022,39.8126287 25.4304396,39.8126287 C26.5465484,39.8126287 27.450544,40.717435 27.450544,41.82681 C27.450544,42.936185 26.5430769,43.8409912 25.4304396,43.8409912 L25.4304396,43.8409912 L25.4304396,43.8409912 Z" id="Fill-3"></path>
                    <path d="M46.7414505,54.6779875 L35.1495495,54.6779875 C33.9743374,54.6779875 33.0216527,55.6278787 33.0216527,56.799645 C33.0216527,57.9714112 33.9743374,58.9213025 35.1495495,58.9213025 L46.7414505,58.9213025 C47.9166626,58.9213025 48.8693473,57.9714112 48.8693473,56.799645 C48.8693473,55.6278787 47.9166626,54.6779875 46.7414505,54.6779875 L46.7414505,54.6779875 L46.7414505,54.6779875 Z" id="Fill-4"></path>
                </g>
                <g opacity="0.93" transform="translate(58.922900, 226.719532) rotate(-67.000000) translate(-58.922900, -226.719532) translate(10.422900, 183.719532)" fill="#7B71E9">
                    <path d="M86.0326154,43.957825 L86.0326154,42.844985 C86.0326154,34.0518075 78.8686,26.900585 70.0596923,26.900585 L51.1123077,26.8963817 L51.1123077,20.0810967 C55.4116,18.9431017 58.5876615,15.0252642 58.5876615,10.3851342 C58.5876615,4.85060425 54.0780462,0.35323425 48.5378154,0.35323425 C42.9975846,0.35323425 38.4879692,4.85479675 38.4879692,10.3851342 C38.4879692,15.0294567 41.6640308,18.9431017 45.9633231,20.0810967 L45.9633231,26.8963817 L27.0159385,26.8963817 C18.2070308,26.8963817 11.0387077,34.0476042 11.0387077,42.8407817 L11.0387077,43.9536217 C4.80429446,45.1629967 0.07563292,50.6514092 0.07563292,57.2234217 C0.07563292,63.8036042 4.81237138,69.2999717 11.0591692,70.4975217 C11.4756369,78.9211142 18.4714154,85.6485717 27.0148615,85.6485717 L70.0627077,85.6485717 C78.6023846,85.6485717 85.5984,78.9214367 86.0184,70.4975217 C92.2612154,69.3007242 96.9976308,63.8081192 96.9976308,57.2234217 C96.9976308,50.6516242 92.2692923,45.1629967 86.0302462,43.9579217 L86.0326154,43.957825 L86.0326154,43.957825 Z M11.0432308,65.197675 C7.67364615,64.1100975 5.22536815,60.9480925 5.22536815,57.2275175 C5.22536815,53.5069425 7.66944615,50.345045 11.0432308,49.25736 L11.0432308,65.197675 L11.0432308,65.197675 Z M43.6330769,10.385575 C43.6330769,7.6854975 45.8332308,5.4892725 48.5381385,5.4892725 C51.2430462,5.4892725 53.4432,7.6854975 53.4432,10.385575 C53.4432,13.0856525 51.2430462,15.2818775 48.5381385,15.2818775 C45.8332308,15.2818775 43.6330769,13.0856525 43.6330769,10.385575 L43.6330769,10.385575 L43.6330769,10.385575 Z M80.8881538,69.704075 C80.8881538,75.6628 76.0294,80.5132 70.0596923,80.5132 L27.0161538,80.5089967 C21.0467692,80.5089967 16.1876923,75.6589192 16.1876923,69.6998717 L16.1876923,42.8463717 C16.1876923,36.8876467 21.0464462,32.0372467 27.0161538,32.0372467 L70.064,32.0372467 C76.0333846,32.0372467 80.8924615,36.8873242 80.8924615,42.8463717 L80.8881538,69.704075 L80.8881538,69.704075 Z M86.0329385,65.19832 L86.0329385,49.25392 C89.4025231,50.3414975 91.8508,53.5035025 91.8508,57.2240775 C91.8508,60.9487375 89.4067231,64.1107425 86.0329385,65.1984275 L86.0329385,65.19832 L86.0329385,65.19832 Z" id="Fill-1"></path>
                    <path d="M67.3092308,43.08385 C63.1235538,43.08385 59.7160615,46.4852575 59.7160615,50.66346 C59.7160615,54.8416625 63.1235538,58.24307 67.3092308,58.24307 C71.4949077,58.24307 74.9024,54.8416625 74.9024,50.66346 C74.9024,46.481065 71.4949077,43.08385 67.3092308,43.08385 L67.3092308,43.08385 L67.3092308,43.08385 Z M67.3092308,53.1031725 C65.9588769,53.1031725 64.8651538,52.0114025 64.8651538,50.66346 C64.8651538,49.3155175 65.9630769,48.2237475 67.3092308,48.2237475 C68.6595846,48.2237475 69.7533077,49.31971 69.7533077,50.66346 C69.7575185,52.00721 68.6595846,53.1031725 67.3092308,53.1031725 L67.3092308,53.1031725 L67.3092308,53.1031725 Z" id="Fill-2"></path>
                    <path d="M29.7676923,43.08385 C25.5820154,43.08385 22.1745231,46.4852575 22.1745231,50.66346 C22.1745231,54.8416625 25.5820154,58.24307 29.7676923,58.24307 C33.9533692,58.24307 37.3608615,54.8416625 37.3608615,50.66346 C37.3608615,46.481065 33.9533692,43.08385 29.7676923,43.08385 L29.7676923,43.08385 L29.7676923,43.08385 Z M29.7676923,53.1031725 C28.4173385,53.1031725 27.3236154,52.0114025 27.3236154,50.66346 C27.3236154,49.3155175 28.4215385,48.2237475 29.7676923,48.2237475 C31.1180462,48.2237475 32.2117692,49.31971 32.2117692,50.66346 C32.2117692,52.00721 31.1138462,53.1031725 29.7676923,53.1031725 L29.7676923,53.1031725 L29.7676923,53.1031725 Z" id="Fill-3"></path>
                    <path d="M55.5513846,66.229675 L41.5266154,66.229675 C40.1047538,66.229675 38.9521231,67.3802475 38.9521231,68.79957 C38.9521231,70.2188925 40.1047538,71.369465 41.5266154,71.369465 L55.5513846,71.369465 C56.9732462,71.369465 58.1258769,70.2188925 58.1258769,68.79957 C58.1258769,67.3802475 56.9732462,66.229675 55.5513846,66.229675 L55.5513846,66.229675 L55.5513846,66.229675 Z" id="Fill-4"></path>
                </g>
                <g opacity="0.77" transform="translate(476.500000, 189.500000) rotate(-90.000000) translate(-476.500000, -189.500000) translate(433.000000, 151.000000)" fill="#7B71E9">
                    <path d="M77.2636484,39.3575875 L77.2636484,38.3612075 C77.2636484,30.4882462 70.9037571,24.0854075 63.0836044,24.0854075 L46.262967,24.0816441 L46.262967,17.9795866 C50.0796857,16.9606841 52.8992505,13.4528529 52.8992505,9.29831787 C52.8992505,4.34298287 48.8958165,0.316267875 43.9774484,0.316267875 C39.0590802,0.316267875 35.0556462,4.34673662 35.0556462,9.29831787 C35.0556462,13.4566066 37.875211,16.9606841 41.6919297,17.9795866 L41.6919297,24.0816441 L24.8712923,24.0816441 C17.0511396,24.0816441 10.6874242,30.4844829 10.6874242,38.3574441 L10.6874242,39.3538241 C5.15279202,40.4366366 0.954898615,45.3506804 0.954898615,51.2349241 C0.954898615,57.1264829 5.15996235,62.0476491 10.705589,63.1198741 C11.0753103,70.6619279 17.2858484,76.6853491 24.8703363,76.6853491 L63.0862813,76.6853491 C70.6674231,76.6853491 76.8781714,70.6622166 77.2510286,63.1198741 C82.7931198,62.0483229 86.9978967,57.1305254 86.9978967,51.2349241 C86.9978967,45.3508729 82.8002901,40.4366366 77.2615451,39.3576741 L77.2636484,39.3575875 L77.2636484,39.3575875 Z M10.6914396,58.3746625 C7.70007363,57.4009012 5.52660234,54.5698037 5.52660234,51.2385912 C5.52660234,47.9073787 7.69634505,45.0763775 10.6914396,44.10252 L10.6914396,58.3746625 L10.6914396,58.3746625 Z M39.6232418,9.2987125 C39.6232418,6.88120125 41.5764396,4.91481375 43.9777352,4.91481375 C46.3790308,4.91481375 48.3322286,6.88120125 48.3322286,9.2987125 C48.3322286,11.7162237 46.3790308,13.6826112 43.9777352,13.6826112 C41.5764396,13.6826112 39.6232418,11.7162237 39.6232418,9.2987125 L39.6232418,9.2987125 L39.6232418,9.2987125 Z M72.6966264,62.4094625 C72.6966264,67.7446 68.3832429,72.0874 63.0836044,72.0874 L24.8714835,72.0836366 C19.5721319,72.0836366 15.2584615,67.7411254 15.2584615,62.4056991 L15.2584615,38.3624491 C15.2584615,33.0273116 19.5718451,28.6845116 24.8714835,28.6845116 L63.0874286,28.6845116 C68.3867802,28.6845116 72.7004505,33.0270229 72.7004505,38.3624491 L72.6966264,62.4094625 L72.6966264,62.4094625 Z M77.2639352,58.37524 L77.2639352,44.09944 C80.2553011,45.0732012 82.4287714,47.9042987 82.4287714,51.2355112 C82.4287714,54.5703812 80.2590297,57.4014787 77.2639352,58.3753362 L77.2639352,58.37524 L77.2639352,58.37524 Z" id="Fill-1"></path>
                    <path d="M60.6418681,38.575075 C56.9260121,38.575075 53.9009934,41.6205212 53.9009934,45.36147 C53.9009934,49.1024187 56.9260121,52.147865 60.6418681,52.147865 C64.3577242,52.147865 67.3827429,49.1024187 67.3827429,45.36147 C67.3827429,41.6167675 64.3577242,38.575075 60.6418681,38.575075 L60.6418681,38.575075 L60.6418681,38.575075 Z M60.6418681,47.5458637 C59.4430846,47.5458637 58.4721264,46.5683487 58.4721264,45.36147 C58.4721264,44.1545912 59.4468132,43.1770762 60.6418681,43.1770762 C61.8406516,43.1770762 62.8116099,44.158345 62.8116099,45.36147 C62.815348,46.564595 61.8406516,47.5458637 60.6418681,47.5458637 L60.6418681,47.5458637 L60.6418681,47.5458637 Z" id="Fill-2"></path>
                    <path d="M27.3141758,38.575075 C23.5983198,38.575075 20.5733011,41.6205212 20.5733011,45.36147 C20.5733011,49.1024187 23.5983198,52.147865 27.3141758,52.147865 C31.0300319,52.147865 34.0550505,49.1024187 34.0550505,45.36147 C34.0550505,41.6167675 31.0300319,38.575075 27.3141758,38.575075 L27.3141758,38.575075 L27.3141758,38.575075 Z M27.3141758,47.5458637 C26.1153923,47.5458637 25.1444341,46.5683487 25.1444341,45.36147 C25.1444341,44.1545912 26.1191209,43.1770762 27.3141758,43.1770762 C28.5129593,43.1770762 29.4839176,44.158345 29.4839176,45.36147 C29.4839176,46.564595 28.5092308,47.5458637 27.3141758,47.5458637 L27.3141758,47.5458637 L27.3141758,47.5458637 Z" id="Fill-3"></path>
                    <path d="M50.2037802,59.2986625 L37.7532198,59.2986625 C36.4909549,59.2986625 35.4677011,60.3288262 35.4677011,61.599615 C35.4677011,62.8704037 36.4909549,63.9005675 37.7532198,63.9005675 L50.2037802,63.9005675 C51.4660451,63.9005675 52.4892989,62.8704037 52.4892989,61.599615 C52.4892989,60.3288262 51.4660451,59.2986625 50.2037802,59.2986625 L50.2037802,59.2986625 L50.2037802,59.2986625 Z" id="Fill-4"></path>
                </g>
                <g opacity="0.86" transform="translate(600.777622, 753.284410) rotate(255.000000) translate(-600.777622, -753.284410) translate(566.777622, 723.284410)" fill="#7B71E9">
                    <path d="M60.389978,30.66825 L60.389978,29.89185 C60.389978,23.757075 55.4190286,18.76785 49.3067253,18.76785 L36.1595604,18.7649175 L36.1595604,14.0100675 C39.1427429,13.2161175 41.3465407,10.4827425 41.3465407,7.2454425 C41.3465407,3.3841425 38.2174198,0.2464425 34.373178,0.2464425 C30.5289363,0.2464425 27.3998154,3.3870675 27.3998154,7.2454425 C27.3998154,10.4856675 29.6036132,13.2161175 32.5867956,14.0100675 L32.5867956,18.7649175 L19.4396308,18.7649175 C13.3273275,18.7649175 8.35338901,23.7541425 8.35338901,29.8889175 L8.35338901,30.6653175 C4.02746963,31.5090675 0.746357538,35.3381925 0.746357538,39.9233175 C0.746357538,44.5141425 4.03307402,48.3488175 8.36758681,49.1843175 C8.6565644,55.0612425 13.510778,59.7548175 19.4388835,59.7548175 L49.3088176,59.7548175 C55.2343077,59.7548175 60.0886857,55.0614675 60.3801143,49.1843175 C64.7118637,48.3493425 67.998356,44.5172925 67.998356,39.9233175 C67.998356,35.3383425 64.7174681,31.5090675 60.3883341,30.6683175 L60.389978,30.66825 L60.389978,30.66825 Z M8.35652747,45.48675 C6.01844835,44.727975 4.31964321,42.521925 4.31964321,39.926175 C4.31964321,37.330425 6.01553407,35.12445 8.35652747,34.3656 L8.35652747,45.48675 L8.35652747,45.48675 Z M30.9698901,7.24575 C30.9698901,5.361975 32.4965275,3.829725 34.3734022,3.829725 C36.2502769,3.829725 37.7769143,5.361975 37.7769143,7.24575 C37.7769143,9.129525 36.2502769,10.661775 34.3734022,10.661775 C32.4965275,10.661775 30.9698901,9.129525 30.9698901,7.24575 L30.9698901,7.24575 L30.9698901,7.24575 Z M56.8203516,48.63075 C56.8203516,52.788 53.4489714,56.172 49.3067253,56.172 L19.4397802,56.1690675 C15.2977582,56.1690675 11.9261538,52.7852925 11.9261538,48.6278175 L11.9261538,29.8928175 C11.9261538,25.7355675 15.2975341,22.3515675 19.4397802,22.3515675 L49.3097143,22.3515675 C53.4517363,22.3515675 56.8233407,25.7353425 56.8233407,29.8928175 L56.8203516,48.63075 L56.8203516,48.63075 Z M60.3902022,45.4872 L60.3902022,34.3632 C62.7282813,35.121975 64.4270857,37.328025 64.4270857,39.923775 C64.4270857,42.522375 62.7311956,44.728425 60.3902022,45.487275 L60.3902022,45.4872 L60.3902022,45.4872 Z" id="Fill-1"></path>
                    <path d="M47.3982418,30.0585 C44.4938945,30.0585 42.1295121,32.431575 42.1295121,35.3466 C42.1295121,38.261625 44.4938945,40.6347 47.3982418,40.6347 C50.302589,40.6347 52.6669714,38.261625 52.6669714,35.3466 C52.6669714,32.42865 50.302589,30.0585 47.3982418,30.0585 L47.3982418,30.0585 L47.3982418,30.0585 Z M47.3982418,37.048725 C46.4612615,37.048725 45.7023516,36.287025 45.7023516,35.3466 C45.7023516,34.406175 46.4641758,33.644475 47.3982418,33.644475 C48.335222,33.644475 49.0941319,34.4091 49.0941319,35.3466 C49.0970536,36.2841 48.335222,37.048725 47.3982418,37.048725 L47.3982418,37.048725 L47.3982418,37.048725 Z" id="Fill-2"></path>
                    <path d="M21.349011,30.0585 C18.4446637,30.0585 16.0802813,32.431575 16.0802813,35.3466 C16.0802813,38.261625 18.4446637,40.6347 21.349011,40.6347 C24.2533582,40.6347 26.6177407,38.261625 26.6177407,35.3466 C26.6177407,32.42865 24.2533582,30.0585 21.349011,30.0585 L21.349011,30.0585 L21.349011,30.0585 Z M21.349011,37.048725 C20.4120308,37.048725 19.6531209,36.287025 19.6531209,35.3466 C19.6531209,34.406175 20.4149451,33.644475 21.349011,33.644475 C22.2859912,33.644475 23.0449011,34.4091 23.0449011,35.3466 C23.0449011,36.2841 22.2830769,37.048725 21.349011,37.048725 L21.349011,37.048725 L21.349011,37.048725 Z" id="Fill-3"></path>
                    <path d="M39.2397363,46.20675 L29.5082637,46.20675 C28.5216659,46.20675 27.7218813,47.009475 27.7218813,47.9997 C27.7218813,48.989925 28.5216659,49.79265 29.5082637,49.79265 L39.2397363,49.79265 C40.2263341,49.79265 41.0261187,48.989925 41.0261187,47.9997 C41.0261187,47.009475 40.2263341,46.20675 39.2397363,46.20675 L39.2397363,46.20675 L39.2397363,46.20675 Z" id="Fill-4"></path>
                </g>
                <g opacity="0.77" transform="translate(76.929819, 814.798767) rotate(53.000000) translate(-76.929819, -814.798767) translate(31.429819, 774.798767)" fill="#7B71E9">
                    <path d="M80.7040879,40.891 L80.7040879,39.8558 C80.7040879,31.6761 73.9786857,25.0238 65.7090989,25.0238 L47.9217582,25.01989 L47.9217582,18.68009 C51.9578286,17.62149 54.9394374,13.97699 54.9394374,9.66059 C54.9394374,4.51219 50.7059209,0.32859 45.5048879,0.32859 C40.3038549,0.32859 36.0703385,4.51609 36.0703385,9.66059 C36.0703385,13.98089 39.0519473,17.62149 43.0880176,18.68009 L43.0880176,25.01989 L25.3006769,25.01989 C17.0310901,25.01989 10.301644,31.67219 10.301644,39.85189 L10.301644,40.88709 C4.44892949,42.01209 0.00977785,47.11759 0.00977785,53.23109 C0.00977785,59.35219 4.45651191,64.46509 10.3208527,65.57909 C10.7118224,73.41499 17.2792879,79.67309 25.2996659,79.67309 L65.7119297,79.67309 C73.7287692,79.67309 80.2964571,73.41529 80.6907429,65.57909 C86.5513451,64.46579 90.9977758,59.35639 90.9977758,53.23109 C90.9977758,47.11779 86.5589275,42.01209 80.7018637,40.89109 L80.7040879,40.891 L80.7040879,40.891 Z M10.3058901,60.649 C7.14260659,59.6373 4.84422316,56.6959 4.84422316,53.2349 C4.84422316,49.7739 7.13866374,46.8326 10.3058901,45.8208 L10.3058901,60.649 L10.3058901,60.649 Z M40.9004396,9.661 C40.9004396,7.1493 42.9658901,5.1063 45.5051912,5.1063 C48.0444923,5.1063 50.1099429,7.1493 50.1099429,9.661 C50.1099429,12.1727 48.0444923,14.2157 45.5051912,14.2157 C42.9658901,14.2157 40.9004396,12.1727 40.9004396,9.661 L40.9004396,9.661 L40.9004396,9.661 Z M75.8745934,64.841 C75.8745934,70.384 71.3133143,74.896 65.7090989,74.896 L25.3008791,74.89209 C19.696967,74.89209 15.1353846,70.38039 15.1353846,64.83709 L15.1353846,39.85709 C15.1353846,34.31409 19.6966637,29.80209 25.3008791,29.80209 L65.7131429,29.80209 C71.3170549,29.80209 75.8786374,34.31379 75.8786374,39.85709 L75.8745934,64.841 L75.8745934,64.841 Z M80.7043912,60.6496 L80.7043912,45.8176 C83.8676747,46.8293 86.1660571,49.7707 86.1660571,53.2317 C86.1660571,56.6965 83.8716176,59.6379 80.7043912,60.6497 L80.7043912,60.6496 L80.7043912,60.6496 Z" id="Fill-1"></path>
                    <path d="M63.127033,40.078 C59.197622,40.078 55.9987516,43.2421 55.9987516,47.1288 C55.9987516,51.0155 59.197622,54.1796 63.127033,54.1796 C67.056444,54.1796 70.2553143,51.0155 70.2553143,47.1288 C70.2553143,43.2382 67.056444,40.078 63.127033,40.078 L63.127033,40.078 L63.127033,40.078 Z M63.127033,49.3983 C61.8593538,49.3983 60.8325934,48.3827 60.8325934,47.1288 C60.8325934,45.8749 61.8632967,44.8593 63.127033,44.8593 C64.3947121,44.8593 65.4214725,45.8788 65.4214725,47.1288 C65.4254255,48.3788 64.3947121,49.3983 63.127033,49.3983 L63.127033,49.3983 L63.127033,49.3983 Z" id="Fill-2"></path>
                    <path d="M27.883956,40.078 C23.9545451,40.078 20.7556747,43.2421 20.7556747,47.1288 C20.7556747,51.0155 23.9545451,54.1796 27.883956,54.1796 C31.813367,54.1796 35.0122374,51.0155 35.0122374,47.1288 C35.0122374,43.2382 31.813367,40.078 27.883956,40.078 L27.883956,40.078 L27.883956,40.078 Z M27.883956,49.3983 C26.6162769,49.3983 25.5895165,48.3827 25.5895165,47.1288 C25.5895165,45.8749 26.6202198,44.8593 27.883956,44.8593 C29.1516352,44.8593 30.1783956,45.8788 30.1783956,47.1288 C30.1783956,48.3788 29.1476923,49.3983 27.883956,49.3983 L27.883956,49.3983 L27.883956,49.3983 Z" id="Fill-3"></path>
                    <path d="M52.0890549,61.609 L38.9229451,61.609 C37.5881363,61.609 36.5060747,62.6793 36.5060747,63.9996 C36.5060747,65.3199 37.5881363,66.3902 38.9229451,66.3902 L52.0890549,66.3902 C53.4238637,66.3902 54.5059253,65.3199 54.5059253,63.9996 C54.5059253,62.6793 53.4238637,61.609 52.0890549,61.609 L52.0890549,61.609 L52.0890549,61.609 Z" id="Fill-4"></path>
                </g>
                <g opacity="0.77" transform="translate(771.929819, 634.874905) rotate(53.000000) translate(-771.929819, -634.874905) translate(726.429819, 594.874905)" fill="#7B71E9">
                    <path d="M80.7040879,40.891 L80.7040879,39.8558 C80.7040879,31.6761 73.9786857,25.0238 65.7090989,25.0238 L47.9217582,25.01989 L47.9217582,18.68009 C51.9578286,17.62149 54.9394374,13.97699 54.9394374,9.66059 C54.9394374,4.51219 50.7059209,0.32859 45.5048879,0.32859 C40.3038549,0.32859 36.0703385,4.51609 36.0703385,9.66059 C36.0703385,13.98089 39.0519473,17.62149 43.0880176,18.68009 L43.0880176,25.01989 L25.3006769,25.01989 C17.0310901,25.01989 10.301644,31.67219 10.301644,39.85189 L10.301644,40.88709 C4.44892949,42.01209 0.00977785,47.11759 0.00977785,53.23109 C0.00977785,59.35219 4.45651191,64.46509 10.3208527,65.57909 C10.7118224,73.41499 17.2792879,79.67309 25.2996659,79.67309 L65.7119297,79.67309 C73.7287692,79.67309 80.2964571,73.41529 80.6907429,65.57909 C86.5513451,64.46579 90.9977758,59.35639 90.9977758,53.23109 C90.9977758,47.11779 86.5589275,42.01209 80.7018637,40.89109 L80.7040879,40.891 L80.7040879,40.891 Z M10.3058901,60.649 C7.14260659,59.6373 4.84422316,56.6959 4.84422316,53.2349 C4.84422316,49.7739 7.13866374,46.8326 10.3058901,45.8208 L10.3058901,60.649 L10.3058901,60.649 Z M40.9004396,9.661 C40.9004396,7.1493 42.9658901,5.1063 45.5051912,5.1063 C48.0444923,5.1063 50.1099429,7.1493 50.1099429,9.661 C50.1099429,12.1727 48.0444923,14.2157 45.5051912,14.2157 C42.9658901,14.2157 40.9004396,12.1727 40.9004396,9.661 L40.9004396,9.661 L40.9004396,9.661 Z M75.8745934,64.841 C75.8745934,70.384 71.3133143,74.896 65.7090989,74.896 L25.3008791,74.89209 C19.696967,74.89209 15.1353846,70.38039 15.1353846,64.83709 L15.1353846,39.85709 C15.1353846,34.31409 19.6966637,29.80209 25.3008791,29.80209 L65.7131429,29.80209 C71.3170549,29.80209 75.8786374,34.31379 75.8786374,39.85709 L75.8745934,64.841 L75.8745934,64.841 Z M80.7043912,60.6496 L80.7043912,45.8176 C83.8676747,46.8293 86.1660571,49.7707 86.1660571,53.2317 C86.1660571,56.6965 83.8716176,59.6379 80.7043912,60.6497 L80.7043912,60.6496 L80.7043912,60.6496 Z" id="Fill-1"></path>
                    <path d="M63.127033,40.078 C59.197622,40.078 55.9987516,43.2421 55.9987516,47.1288 C55.9987516,51.0155 59.197622,54.1796 63.127033,54.1796 C67.056444,54.1796 70.2553143,51.0155 70.2553143,47.1288 C70.2553143,43.2382 67.056444,40.078 63.127033,40.078 L63.127033,40.078 L63.127033,40.078 Z M63.127033,49.3983 C61.8593538,49.3983 60.8325934,48.3827 60.8325934,47.1288 C60.8325934,45.8749 61.8632967,44.8593 63.127033,44.8593 C64.3947121,44.8593 65.4214725,45.8788 65.4214725,47.1288 C65.4254255,48.3788 64.3947121,49.3983 63.127033,49.3983 L63.127033,49.3983 L63.127033,49.3983 Z" id="Fill-2"></path>
                    <path d="M27.883956,40.078 C23.9545451,40.078 20.7556747,43.2421 20.7556747,47.1288 C20.7556747,51.0155 23.9545451,54.1796 27.883956,54.1796 C31.813367,54.1796 35.0122374,51.0155 35.0122374,47.1288 C35.0122374,43.2382 31.813367,40.078 27.883956,40.078 L27.883956,40.078 L27.883956,40.078 Z M27.883956,49.3983 C26.6162769,49.3983 25.5895165,48.3827 25.5895165,47.1288 C25.5895165,45.8749 26.6202198,44.8593 27.883956,44.8593 C29.1516352,44.8593 30.1783956,45.8788 30.1783956,47.1288 C30.1783956,48.3788 29.1476923,49.3983 27.883956,49.3983 L27.883956,49.3983 L27.883956,49.3983 Z" id="Fill-3"></path>
                    <path d="M52.0890549,61.609 L38.9229451,61.609 C37.5881363,61.609 36.5060747,62.6793 36.5060747,63.9996 C36.5060747,65.3199 37.5881363,66.3902 38.9229451,66.3902 L52.0890549,66.3902 C53.4238637,66.3902 54.5059253,65.3199 54.5059253,63.9996 C54.5059253,62.6793 53.4238637,61.609 52.0890549,61.609 L52.0890549,61.609 L52.0890549,61.609 Z" id="Fill-4"></path>
                </g>
                <g opacity="0.78" transform="translate(295.985026, 413.881478) rotate(1.000000) translate(-295.985026, -413.881478) translate(243.485026, 367.381478)" fill="#7B71E9">
                    <path d="M93.1373187,47.5357875 L93.1373187,46.3323675 C93.1373187,36.8234662 85.3884857,29.0901675 75.8604835,29.0901675 L55.3663736,29.0856221 L55.3663736,21.7156046 C60.0166286,20.4849821 63.4519604,16.2482509 63.4519604,11.2304359 C63.4519604,5.24542087 58.5742132,0.381985875 52.5817187,0.381985875 C46.5892242,0.381985875 41.7114769,5.24995462 41.7114769,11.2304359 C41.7114769,16.2527846 45.1468088,20.4849821 49.7970637,21.7156046 L49.7970637,29.0856221 L29.3029538,29.0856221 C19.7749516,29.0856221 12.0214593,36.8189209 12.0214593,46.3278221 L12.0214593,47.5312421 C5.27811442,48.8390546 0.16343969,54.7741984 0.16343969,61.8811421 C0.16343969,68.9969209 5.28685068,74.9406671 12.0435912,76.2356921 C12.4940563,85.3449259 20.0609187,92.6199671 29.301789,92.6199671 L75.8637451,92.6199671 C85.1005385,92.6199671 92.6676571,85.3452746 93.1219429,76.2356921 C99.874376,74.9414809 104.997437,69.0018034 104.997437,61.8811421 C104.997437,54.7744309 99.883112,48.8390546 93.134756,47.5358921 L93.1373187,47.5357875 L93.1373187,47.5357875 Z M12.0263516,70.5044625 C8.3816989,69.3283612 5.73356147,65.9089837 5.73356147,61.8855712 C5.73356147,57.8621587 8.37715604,54.4428975 12.0263516,53.26668 L12.0263516,70.5044625 L12.0263516,70.5044625 Z M47.2765934,11.2309125 C47.2765934,8.31106125 49.6563516,5.93607375 52.5820681,5.93607375 C55.5077846,5.93607375 57.8875429,8.31106125 57.8875429,11.2309125 C57.8875429,14.1507637 55.5077846,16.5257512 52.5820681,16.5257512 C49.6563516,16.5257512 47.2765934,14.1507637 47.2765934,11.2309125 L47.2765934,11.2309125 L47.2765934,11.2309125 Z M87.5729011,75.3776625 C87.5729011,81.8214 82.3175143,87.0666 75.8604835,87.0666 L29.3031868,87.0620546 C22.8465055,87.0620546 17.5907692,81.8172034 17.5907692,75.3731171 L17.5907692,46.3338671 C17.5907692,39.8901296 22.846156,34.6449296 29.3031868,34.6449296 L75.8651429,34.6449296 C82.3218242,34.6449296 87.5775604,39.8897809 87.5775604,46.3338671 L87.5729011,75.3776625 L87.5729011,75.3776625 Z M93.1376681,70.50516 L93.1376681,53.26296 C96.7823209,54.4390612 99.430457,57.8584387 99.430457,61.8818512 C99.430457,65.9096812 96.7868637,69.3290587 93.1376681,70.5052762 L93.1376681,70.50516 L93.1376681,70.50516 Z" id="Fill-1"></path>
                    <path d="M72.8854945,46.590675 C68.3581297,46.590675 64.6724747,50.2689412 64.6724747,54.78723 C64.6724747,59.3055187 68.3581297,62.983785 72.8854945,62.983785 C77.4128593,62.983785 81.0985143,59.3055187 81.0985143,54.78723 C81.0985143,50.2644075 77.4128593,46.590675 72.8854945,46.590675 L72.8854945,46.590675 L72.8854945,46.590675 Z M72.8854945,57.4255237 C71.4249077,57.4255237 70.2419011,56.2448887 70.2419011,54.78723 C70.2419011,53.3295712 71.4294505,52.1489362 72.8854945,52.1489362 C74.3460813,52.1489362 75.5290879,53.334105 75.5290879,54.78723 C75.5336424,56.240355 74.3460813,57.4255237 72.8854945,57.4255237 L72.8854945,57.4255237 L72.8854945,57.4255237 Z" id="Fill-2"></path>
                    <path d="M32.2793407,46.590675 C27.7519758,46.590675 24.0663209,50.2689412 24.0663209,54.78723 C24.0663209,59.3055187 27.7519758,62.983785 32.2793407,62.983785 C36.8067055,62.983785 40.4923604,59.3055187 40.4923604,54.78723 C40.4923604,50.2644075 36.8067055,46.590675 32.2793407,46.590675 L32.2793407,46.590675 L32.2793407,46.590675 Z M32.2793407,57.4255237 C30.8187538,57.4255237 29.6357473,56.2448887 29.6357473,54.78723 C29.6357473,53.3295712 30.8232967,52.1489362 32.2793407,52.1489362 C33.7399275,52.1489362 34.9229341,53.334105 34.9229341,54.78723 C34.9229341,56.240355 33.7353846,57.4255237 32.2793407,57.4255237 L32.2793407,57.4255237 L32.2793407,57.4255237 Z" id="Fill-3"></path>
                    <path d="M60.1678242,71.6204625 L44.9981758,71.6204625 C43.460244,71.6204625 42.2135209,72.8646862 42.2135209,74.399535 C42.2135209,75.9343837 43.460244,77.1786075 44.9981758,77.1786075 L60.1678242,77.1786075 C61.705756,77.1786075 62.9524791,75.9343837 62.9524791,74.399535 C62.9524791,72.8646862 61.705756,71.6204625 60.1678242,71.6204625 L60.1678242,71.6204625 L60.1678242,71.6204625 Z" id="Fill-4"></path>
                </g>
                <path d="M644.569808,218.55583 C638.558782,218.55583 632.963088,220.97777 628.886958,225.270364 C624.811492,220.97445 619.215798,218.55583 613.204108,218.55583 C601.256258,218.55583 591.536954,228.27596 591.536954,240.22298 C591.536954,261.18048 626.445919,280.87389 627.930798,281.70389 L628.845126,282.212912 L629.778876,281.739555 C631.267066,280.980885 666.237447,262.964125 666.237447,240.222955 C666.237447,228.275105 656.517317,218.555805 644.570297,218.555805 L644.569808,218.55583 L644.569808,218.55583 Z M628.929288,277.73566 C623.459754,274.506462 595.470325,257.1417 595.470325,240.22381 C595.470325,230.44558 603.426625,222.4892 613.204938,222.4892 C618.788016,222.4892 623.936838,225.040786 627.324898,229.492325 L628.887622,231.547903 L630.453583,229.492325 C633.841643,225.040786 638.986813,222.4892 644.573543,222.4892 C654.351773,222.4892 662.308153,230.445497 662.308153,240.22381 C662.304907,258.64566 634.421813,274.746838 628.929703,277.73566 L628.929288,277.73566 L628.929288,277.73566 Z" fill="#3A0048" opacity="0.83" transform="translate(628.887200, 250.384358) rotate(-46.000000) translate(-628.887200, -250.384358) "></path>
                <path d="M436.446074,301.947357 C431.014424,301.947357 425.958074,304.135857 422.274824,308.014707 C418.592174,304.132857 413.535824,301.947357 408.103574,301.947357 C397.307324,301.947357 388.524821,310.730607 388.524821,321.526107 C388.524821,340.463607 420.069067,358.258857 421.410824,359.008857 L422.237024,359.468817 L423.080774,359.041085 C424.425524,358.35554 456.025267,342.075335 456.025267,321.526085 C456.025267,310.729835 447.242017,301.947335 436.446517,301.947335 L436.446074,301.947357 L436.446074,301.947357 Z M422.313074,355.423107 C417.370724,352.505157 392.079072,336.814107 392.079072,321.526857 C392.079072,312.691107 399.268499,305.501607 408.104324,305.501607 C413.149274,305.501607 417.801824,307.807257 420.863324,311.829732 L422.275424,313.687182 L423.690449,311.829732 C426.751949,307.807257 431.401199,305.501607 436.449449,305.501607 C445.285199,305.501607 452.474699,312.691032 452.474699,321.526857 C452.471767,338.173107 427.276199,352.722365 422.313449,355.423107 L422.313074,355.423107 L422.313074,355.423107 Z" fill="#3A0048" opacity="0.77" transform="translate(422.275044, 330.708076) rotate(19.000000) translate(-422.275044, -330.708076) "></path>
                <path d="M218.23438,678.802583 C210.63007,678.802583 203.55118,681.866483 198.39463,687.296873 C193.23892,681.862283 186.16003,678.802583 178.55488,678.802583 C163.44013,678.802583 151.144626,691.099133 151.144626,706.212833 C151.144626,732.725333 195.306569,757.638683 197.18503,758.688683 L198.34171,759.332627 L199.52296,758.733802 C201.40561,757.774039 245.645249,734.981752 245.645249,706.212802 C245.645249,691.098052 233.348699,678.802552 218.234999,678.802552 L218.23438,678.802583 L218.23438,678.802583 Z M198.44818,753.668633 C191.52889,749.583503 156.120577,727.616033 156.120577,706.213883 C156.120577,693.843833 166.185775,683.778533 178.55593,683.778533 C185.61886,683.778533 192.13243,687.006443 196.41853,692.637908 L198.39547,695.238338 L200.376505,692.637908 C204.662605,687.006443 211.171555,683.778533 218.239105,683.778533 C230.609155,683.778533 240.674455,693.843728 240.674455,706.213883 C240.670349,729.518633 205.396555,749.887594 198.448705,753.668633 L198.44818,753.668633 L198.44818,753.668633 Z" fill="#3A0048" opacity="0.77" transform="translate(198.394938, 719.067590) rotate(-15.000000) translate(-198.394938, -719.067590) "></path>
                <path d="M283.960745,167.098427 C277.370343,167.098427 271.235305,169.753807 266.766295,174.460145 C262.298013,169.750167 256.162975,167.098427 249.571845,167.098427 C236.472395,167.098427 225.816292,177.755437 225.816292,190.853977 C225.816292,213.831477 264.089976,235.423047 265.717975,236.333047 L266.720431,236.891132 L267.744181,236.37215 C269.375811,235.540356 307.716832,215.78704 307.716832,190.85395 C307.716832,177.7545 297.059822,167.0984 283.961282,167.0984 L283.960745,167.098427 L283.960745,167.098427 Z M266.812705,231.982337 C260.815987,228.441891 230.128783,209.403417 230.128783,190.854887 C230.128783,180.134177 238.851954,171.410917 249.572755,171.410917 C255.693961,171.410917 261.339055,174.208439 265.053675,179.089042 L266.767023,181.342748 L268.48392,179.089042 C272.19854,174.208439 277.83963,171.410917 283.96484,171.410917 C294.68555,171.410917 303.40881,180.134086 303.40881,190.854887 C303.405252,211.052337 272.83463,228.705437 266.81316,231.982337 L266.812705,231.982337 L266.812705,231.982337 Z" fill="#3A0048" opacity="0.79" transform="translate(266.766562, 201.994766) rotate(76.000000) translate(-266.766562, -201.994766) "></path>
                <path d="M445.66999,617.639971 L389.41999,617.639971 C387.34576,617.639971 385.66879,619.320451 385.66879,621.391171 L363.168789,621.391171 C361.094559,621.391171 359.417589,623.071651 359.417589,625.138861 L359.417589,625.659169 C359.417589,637.569769 368.95219,647.638969 380.24089,647.638969 L389.59279,647.638969 C390.113098,648.36319 390.56659,649.140169 390.93577,649.962769 C392.98885,654.487339 392.39827,661.985869 388.5487,666.391369 L385.66942,666.391369 C383.59519,666.391369 381.91822,668.071849 381.91822,670.139059 C381.91822,672.209779 383.59519,673.890259 385.66942,673.890259 L423.17062,673.890259 C425.24485,673.890259 426.91831,672.209779 426.91831,670.139059 C426.91831,668.071849 425.24485,666.391369 423.17062,666.391369 L420.29134,666.391369 C416.44177,661.986319 415.8511,654.487069 417.90427,649.962769 C418.276924,649.129567 418.733962,648.342049 419.18749,647.719789 C419.198038,647.698693 419.226163,647.667058 419.24725,647.638933 L426.91831,647.638933 C440.87911,647.638933 449.41831,630.644233 449.41831,621.391333 C449.41831,619.320613 447.74485,617.640133 445.67062,617.640133" fill="#343A85" opacity="0.78" transform="translate(404.417950, 645.765115) rotate(-77.000000) translate(-404.417950, -645.765115) "></path>
                <path d="M783.663927,742.318331 L727.413927,742.318331 C725.339697,742.318331 723.662727,743.998811 723.662727,746.069531 L701.162725,746.069531 C699.088495,746.069531 697.411525,747.750011 697.411525,749.817221 L697.411525,750.337529 C697.411525,762.248129 706.946127,772.317329 718.234827,772.317329 L727.586727,772.317329 C728.107035,773.04155 728.560527,773.818529 728.929707,774.641129 C730.982787,779.165699 730.392207,786.664229 726.542637,791.069729 L723.663357,791.069729 C721.589127,791.069729 719.912157,792.750209 719.912157,794.817419 C719.912157,796.888139 721.589127,798.568619 723.663357,798.568619 L761.164557,798.568619 C763.238787,798.568619 764.912247,796.888139 764.912247,794.817419 C764.912247,792.750209 763.238787,791.069729 761.164557,791.069729 L758.285277,791.069729 C754.435707,786.664679 753.845037,779.165429 755.898207,774.641129 C756.270861,773.807927 756.727899,773.020409 757.181427,772.398149 C757.191975,772.377053 757.2201,772.345418 757.241187,772.317293 L764.912247,772.317293 C778.873047,772.317293 787.412247,755.322593 787.412247,746.069693 C787.412247,743.998973 785.738787,742.318493 783.664557,742.318493" fill="#343A85" opacity="0.666945199" transform="translate(742.411886, 770.443475) rotate(-77.000000) translate(-742.411886, -770.443475) "></path>
                <path d="M633.72655,50.788228 L573.10155,50.788228 C570.865991,50.788228 569.05859,52.599412 569.05859,54.831188 L544.808588,54.831188 C542.573029,54.831188 540.765629,56.642372 540.765629,58.870365 L540.765629,59.4311414 C540.765629,72.2681214 551.04181,83.1204814 563.20852,83.1204814 L573.28779,83.1204814 C573.848567,83.9010307 574.33733,84.7384414 574.735224,85.6250214 C576.947988,90.5015024 576.311474,98.5832519 572.162493,103.331402 L569.059269,103.331402 C566.82371,103.331402 565.016309,105.142586 565.016309,107.370579 C565.016309,109.602355 566.82371,111.413539 569.059269,111.413539 L609.477229,111.413539 C611.712788,111.413539 613.516406,109.602355 613.516406,107.370579 C613.516406,105.142586 611.712788,103.331402 609.477229,103.331402 L606.374005,103.331402 C602.225024,98.5837369 601.588413,90.5012114 603.801274,85.6250214 C604.202913,84.7270148 604.695498,83.8782454 605.1843,83.2075874 C605.195669,83.1848506 605.225981,83.1507551 605.248708,83.1204426 L613.516406,83.1204426 C628.563046,83.1204426 637.766406,64.8039326 637.766406,54.8313626 C637.766406,52.5995866 635.962788,50.7884026 633.727229,50.7884026" fill="#343A85" opacity="0.7" transform="translate(589.266017, 81.100883) rotate(-7.000000) translate(-589.266017, -81.100883) "></path>
                <g opacity="0.77" transform="translate(784.500000, 138.500000) rotate(-42.000000) translate(-784.500000, -138.500000) translate(741.000000, 100.000000)" fill="#7B71E9">
                    <path d="M77.2636484,39.3575875 L77.2636484,38.3612075 C77.2636484,30.4882462 70.9037571,24.0854075 63.0836044,24.0854075 L46.262967,24.0816441 L46.262967,17.9795866 C50.0796857,16.9606841 52.8992505,13.4528529 52.8992505,9.29831787 C52.8992505,4.34298287 48.8958165,0.316267875 43.9774484,0.316267875 C39.0590802,0.316267875 35.0556462,4.34673662 35.0556462,9.29831787 C35.0556462,13.4566066 37.875211,16.9606841 41.6919297,17.9795866 L41.6919297,24.0816441 L24.8712923,24.0816441 C17.0511396,24.0816441 10.6874242,30.4844829 10.6874242,38.3574441 L10.6874242,39.3538241 C5.15279202,40.4366366 0.954898615,45.3506804 0.954898615,51.2349241 C0.954898615,57.1264829 5.15996235,62.0476491 10.705589,63.1198741 C11.0753103,70.6619279 17.2858484,76.6853491 24.8703363,76.6853491 L63.0862813,76.6853491 C70.6674231,76.6853491 76.8781714,70.6622166 77.2510286,63.1198741 C82.7931198,62.0483229 86.9978967,57.1305254 86.9978967,51.2349241 C86.9978967,45.3508729 82.8002901,40.4366366 77.2615451,39.3576741 L77.2636484,39.3575875 L77.2636484,39.3575875 Z M10.6914396,58.3746625 C7.70007363,57.4009012 5.52660234,54.5698037 5.52660234,51.2385912 C5.52660234,47.9073787 7.69634505,45.0763775 10.6914396,44.10252 L10.6914396,58.3746625 L10.6914396,58.3746625 Z M39.6232418,9.2987125 C39.6232418,6.88120125 41.5764396,4.91481375 43.9777352,4.91481375 C46.3790308,4.91481375 48.3322286,6.88120125 48.3322286,9.2987125 C48.3322286,11.7162237 46.3790308,13.6826112 43.9777352,13.6826112 C41.5764396,13.6826112 39.6232418,11.7162237 39.6232418,9.2987125 L39.6232418,9.2987125 L39.6232418,9.2987125 Z M72.6966264,62.4094625 C72.6966264,67.7446 68.3832429,72.0874 63.0836044,72.0874 L24.8714835,72.0836366 C19.5721319,72.0836366 15.2584615,67.7411254 15.2584615,62.4056991 L15.2584615,38.3624491 C15.2584615,33.0273116 19.5718451,28.6845116 24.8714835,28.6845116 L63.0874286,28.6845116 C68.3867802,28.6845116 72.7004505,33.0270229 72.7004505,38.3624491 L72.6966264,62.4094625 L72.6966264,62.4094625 Z M77.2639352,58.37524 L77.2639352,44.09944 C80.2553011,45.0732012 82.4287714,47.9042987 82.4287714,51.2355112 C82.4287714,54.5703812 80.2590297,57.4014787 77.2639352,58.3753362 L77.2639352,58.37524 L77.2639352,58.37524 Z" id="Fill-1"></path>
                    <path d="M60.6418681,38.575075 C56.9260121,38.575075 53.9009934,41.6205212 53.9009934,45.36147 C53.9009934,49.1024187 56.9260121,52.147865 60.6418681,52.147865 C64.3577242,52.147865 67.3827429,49.1024187 67.3827429,45.36147 C67.3827429,41.6167675 64.3577242,38.575075 60.6418681,38.575075 L60.6418681,38.575075 L60.6418681,38.575075 Z M60.6418681,47.5458637 C59.4430846,47.5458637 58.4721264,46.5683487 58.4721264,45.36147 C58.4721264,44.1545912 59.4468132,43.1770762 60.6418681,43.1770762 C61.8406516,43.1770762 62.8116099,44.158345 62.8116099,45.36147 C62.815348,46.564595 61.8406516,47.5458637 60.6418681,47.5458637 L60.6418681,47.5458637 L60.6418681,47.5458637 Z" id="Fill-2"></path>
                    <path d="M27.3141758,38.575075 C23.5983198,38.575075 20.5733011,41.6205212 20.5733011,45.36147 C20.5733011,49.1024187 23.5983198,52.147865 27.3141758,52.147865 C31.0300319,52.147865 34.0550505,49.1024187 34.0550505,45.36147 C34.0550505,41.6167675 31.0300319,38.575075 27.3141758,38.575075 L27.3141758,38.575075 L27.3141758,38.575075 Z M27.3141758,47.5458637 C26.1153923,47.5458637 25.1444341,46.5683487 25.1444341,45.36147 C25.1444341,44.1545912 26.1191209,43.1770762 27.3141758,43.1770762 C28.5129593,43.1770762 29.4839176,44.158345 29.4839176,45.36147 C29.4839176,46.564595 28.5092308,47.5458637 27.3141758,47.5458637 L27.3141758,47.5458637 L27.3141758,47.5458637 Z" id="Fill-3"></path>
                    <path d="M50.2037802,59.2986625 L37.7532198,59.2986625 C36.4909549,59.2986625 35.4677011,60.3288262 35.4677011,61.599615 C35.4677011,62.8704037 36.4909549,63.9005675 37.7532198,63.9005675 L50.2037802,63.9005675 C51.4660451,63.9005675 52.4892989,62.8704037 52.4892989,61.599615 C52.4892989,60.3288262 51.4660451,59.2986625 50.2037802,59.2986625 L50.2037802,59.2986625 L50.2037802,59.2986625 Z" id="Fill-4"></path>
                </g>
                <path d="M946.446074,551.947357 C941.014424,551.947357 935.958074,554.135857 932.274824,558.014707 C928.592174,554.132857 923.535824,551.947357 918.103574,551.947357 C907.307324,551.947357 898.524821,560.730607 898.524821,571.526107 C898.524821,590.463607 930.069067,608.258857 931.410824,609.008857 L932.237024,609.468817 L933.080774,609.041085 C934.425524,608.35554 966.025269,592.075335 966.025269,571.526085 C966.025269,560.729835 957.242017,551.947335 946.446517,551.947335 L946.446074,551.947357 L946.446074,551.947357 Z M932.313074,605.423107 C927.370724,602.505157 902.079072,586.814107 902.079072,571.526857 C902.079072,562.691107 909.268499,555.501607 918.104324,555.501607 C923.149274,555.501607 927.801824,557.807257 930.863324,561.829732 L932.275424,563.687182 L933.690449,561.829732 C936.751949,557.807257 941.401199,555.501607 946.449449,555.501607 C955.285199,555.501607 962.474699,562.691032 962.474699,571.526857 C962.471769,588.173107 937.276199,602.722365 932.313449,605.423107 L932.313074,605.423107 L932.313074,605.423107 Z" fill="#3A0048" opacity="0.77" transform="translate(932.275045, 580.708076) rotate(19.000000) translate(-932.275045, -580.708076) "></path>
                <path d="M806.960745,433.410231 C800.370343,433.410231 794.235305,436.065611 789.766295,440.771949 C785.298013,436.061971 779.162975,433.410231 772.571845,433.410231 C759.472395,433.410231 748.816292,444.067241 748.816292,457.165781 C748.816292,480.143281 787.089976,501.734851 788.717975,502.644851 L789.720431,503.202936 L790.744181,502.683954 C792.375811,501.852159 830.716832,482.098844 830.716832,457.165754 C830.716832,444.066304 820.059822,433.410204 806.961282,433.410204 L806.960745,433.410231 L806.960745,433.410231 Z M789.812705,498.294141 C783.815987,494.753695 753.128783,475.715221 753.128783,457.166691 C753.128783,446.445981 761.851954,437.722721 772.572755,437.722721 C778.693961,437.722721 784.339055,440.520243 788.053675,445.400846 L789.767023,447.654552 L791.48392,445.400846 C795.19854,440.520243 800.83963,437.722721 806.96484,437.722721 C817.68555,437.722721 826.40881,446.44589 826.40881,457.166691 C826.405252,477.364141 795.83463,495.01724 789.81316,498.294141 L789.812705,498.294141 L789.812705,498.294141 Z" fill="#3A0048" opacity="0.79" transform="translate(789.766562, 468.306570) rotate(76.000000) translate(-789.766562, -468.306570) "></path>
                <path d="M936.960746,54.4102298 C930.370344,54.4102298 924.235306,57.0656098 919.766296,61.7719478 C915.298014,57.0619698 909.162976,54.4102298 902.571846,54.4102298 C889.472396,54.4102298 878.816293,65.0672398 878.816293,78.1657798 C878.816293,101.14328 917.089977,122.73485 918.717976,123.64485 L919.720432,124.202935 L920.744182,123.683953 C922.375812,122.852158 960.716831,103.098843 960.716831,78.1657525 C960.716831,65.0663025 950.059823,54.4102025 936.961283,54.4102025 L936.960746,54.4102298 L936.960746,54.4102298 Z M919.812706,119.29414 C913.815988,115.753694 883.128784,96.7152198 883.128784,78.1666898 C883.128784,67.4459798 891.851955,58.7227198 902.572756,58.7227198 C908.693962,58.7227198 914.339056,61.5202418 918.053676,66.4008448 L919.767024,68.6545508 L921.483921,66.4008448 C925.198541,61.5202418 930.839631,58.7227198 936.964841,58.7227198 C947.685551,58.7227198 956.408811,67.4458888 956.408811,78.1666898 C956.405251,98.3641398 925.834631,116.017239 919.813161,119.29414 L919.812706,119.29414 L919.812706,119.29414 Z" fill="#3A0048" opacity="0.79" transform="translate(919.766562, 89.306569) rotate(76.000000) translate(-919.766562, -89.306569) "></path>
                <path d="M111.814013,373.517754 L54.9390127,373.517754 C52.8417357,373.517754 51.1461327,375.216906 51.1461327,377.310634 L28.3961309,377.310634 C26.2988539,377.310634 24.603251,379.009786 24.603251,381.099965 L24.603251,381.626054 C24.603251,393.668994 34.2437927,403.850074 45.6579227,403.850074 L55.1137327,403.850074 C55.6398219,404.582342 56.0983527,405.367954 56.4716345,406.199694 C58.5475265,410.774537 57.9503845,418.356384 54.0580417,422.810834 L51.1467697,422.810834 C49.0494927,422.810834 47.3538897,424.509986 47.3538897,426.600165 C47.3538897,428.693893 49.0494927,430.393045 51.1467697,430.393045 L89.0646495,430.393045 C91.1619265,430.393045 92.8539805,428.693893 92.8539805,426.600165 C92.8539805,424.509986 91.1619265,422.810834 89.0646495,422.810834 L86.1533775,422.810834 C82.2610345,418.356839 81.6638015,410.774264 83.7397845,406.199694 C84.1165795,405.357234 84.5786955,404.560966 85.0372625,403.931792 C85.0479275,403.910462 85.0763655,403.878475 85.0976865,403.850038 L92.8539805,403.850038 C106.969901,403.850038 115.603981,386.666508 115.603981,377.310798 C115.603981,375.21707 113.911927,373.517918 111.81465,373.517918" fill="#343A85" opacity="0.89" transform="translate(70.103616, 401.955400) rotate(157.000000) translate(-70.103616, -401.955400) "></path>
                <path d="M127.200795,31.2105226 L55.3257953,31.2105226 C52.6753903,31.2105226 50.5325953,33.3578026 50.5325953,36.0037226 L21.7825932,36.0037226 C19.1321882,36.0037226 16.9893933,38.1510026 16.9893933,40.7924376 L16.9893933,41.4572756 C16.9893933,56.6763756 29.1724955,69.5425756 43.5969455,69.5425756 L55.5465953,69.5425756 C56.2114333,70.4679696 56.7908953,71.4607756 57.2626253,72.5118756 C59.8860053,78.2932706 59.1313753,87.8747256 54.2124803,93.5039756 L50.5334003,93.5039756 C47.8829953,93.5039756 45.7402005,95.6512556 45.7402005,98.2926906 C45.7402005,100.938611 47.8829953,103.085891 50.5334003,103.085891 L98.4516003,103.085891 C101.102005,103.085891 103.240315,100.938611 103.240315,98.2926906 C103.240315,95.6512556 101.102005,93.5039756 98.4516003,93.5039756 L94.7725203,93.5039756 C89.8536253,87.8753006 89.0988803,78.2929256 91.7223753,72.5118756 C92.1985443,71.4472286 92.7825373,70.4409556 93.3620453,69.6458456 C93.3755233,69.6188896 93.4114613,69.5784676 93.4384053,69.5425296 L103.240315,69.5425296 C121.079115,69.5425296 131.990315,47.8270796 131.990315,36.0039296 C131.990315,33.3580096 129.852005,31.2107296 127.2016,31.2107296" fill="#343A85" opacity="0.73" transform="translate(74.489854, 67.148207) rotate(130.000000) translate(-74.489854, -67.148207) "></path>
                <path d="M942.424585,894.201181 L870.549585,894.201181 C867.89918,894.201181 865.756385,896.348461 865.756385,898.994381 L837.006383,898.994381 C834.355978,898.994381 832.213183,901.141661 832.213183,903.783096 L832.213183,904.447934 C832.213183,919.667034 844.396285,932.533234 858.820735,932.533234 L870.770385,932.533234 C871.435223,933.458628 872.014685,934.451434 872.486415,935.502534 C875.109795,941.283929 874.355165,950.865384 869.43627,956.494634 L865.75719,956.494634 C863.106785,956.494634 860.96399,958.641914 860.96399,961.283349 C860.96399,963.929269 863.106785,966.076549 865.75719,966.076549 L913.67539,966.076549 C916.325795,966.076549 918.464105,963.929269 918.464105,961.283349 C918.464105,958.641914 916.325795,956.494634 913.67539,956.494634 L909.99631,956.494634 C905.077415,950.865959 904.32267,941.283584 906.946165,935.502534 C907.422334,934.437887 908.006327,933.431614 908.585835,932.636504 C908.599313,932.609548 908.635251,932.569126 908.662195,932.533188 L918.464105,932.533188 C936.302905,932.533188 947.214105,910.817738 947.214105,898.994588 C947.214105,896.348668 945.075795,894.201388 942.42539,894.201388" fill="#343A85" opacity="0.73" transform="translate(889.713644, 930.138865) rotate(35.000000) translate(-889.713644, -930.138865) "></path>
            </g>
            <g id="Page-1" transform="translate(297.000000, 26.000000)" fill="#A50000">
                <path d="M100,94.5 C88.5,80.5 96.5,75.5 84.5,65.5 C79,60.5 70,60 64,65 C57.5,71 58,80 63.5,87 C72,97.5 87,100.5 96.5,101 C100.5,101 102.5,97 100,94.5 L100,94.5 Z" id="Fill-1"></path>
                <path d="M65.5,51.5 C47.5,33 10,-6 2,2 C-6,10 32,46.5 50.5,65 C51,65.5 51.5,65.5 52,64.5 C53.5,62 55,59.5 57.5,57.5 C59.5,55.5 62,54 65,53 C66,53 66,52 65.5,51.5 L65.5,51.5 Z" id="Fill-2"></path>
            </g>
            <g id="Page-1" opacity="0.528249547" transform="translate(829.000000, 282.000000) rotate(81.000000) translate(-829.000000, -282.000000) translate(793.000000, 246.000000)" fill="#840000">
                <path d="M70.5882353,66.7058824 C62.4705882,56.8235294 68.1176471,53.2941176 59.6470588,46.2352941 C55.7647059,42.7058824 49.4117647,42.3529412 45.1764706,45.8823529 C40.5882353,50.1176471 40.9411765,56.4705882 44.8235294,61.4117647 C50.8235294,68.8235294 61.4117647,70.9411765 68.1176471,71.2941176 C70.9411765,71.2941176 72.3529412,68.4705882 70.5882353,66.7058824 L70.5882353,66.7058824 Z" id="Fill-1"></path>
                <path d="M46.2352941,36.3529412 C33.5294118,23.2941176 7.05882353,-4.23529412 1.41176471,1.41176471 C-4.23529412,7.05882353 22.5882353,32.8235294 35.6470588,45.8823529 C36,46.2352941 36.3529412,46.2352941 36.7058824,45.5294118 C37.7647059,43.7647059 38.8235294,42 40.5882353,40.5882353 C42,39.1764706 43.7647059,38.1176471 45.8823529,37.4117647 C46.5882353,37.4117647 46.5882353,36.7058824 46.2352941,36.3529412 L46.2352941,36.3529412 Z" id="Fill-2"></path>
            </g>
            <g id="Page-1" opacity="0.528249547" transform="translate(198.188421, 881.188421) rotate(81.000000) translate(-198.188421, -881.188421) translate(162.188421, 845.188421)" fill="#840000">
                <path d="M70.5882353,66.7058824 C62.4705882,56.8235294 68.1176471,53.2941176 59.6470588,46.2352941 C55.7647059,42.7058824 49.4117647,42.3529412 45.1764706,45.8823529 C40.5882353,50.1176471 40.9411765,56.4705882 44.8235294,61.4117647 C50.8235294,68.8235294 61.4117647,70.9411765 68.1176471,71.2941176 C70.9411765,71.2941176 72.3529412,68.4705882 70.5882353,66.7058824 L70.5882353,66.7058824 Z" id="Fill-1"></path>
                <path d="M46.2352941,36.3529412 C33.5294118,23.2941176 7.05882353,-4.23529412 1.41176471,1.41176471 C-4.23529412,7.05882353 22.5882353,32.8235294 35.6470588,45.8823529 C36,46.2352941 36.3529412,46.2352941 36.7058824,45.5294118 C37.7647059,43.7647059 38.8235294,42 40.5882353,40.5882353 C42,39.1764706 43.7647059,38.1176471 45.8823529,37.4117647 C46.5882353,37.4117647 46.5882353,36.7058824 46.2352941,36.3529412 L46.2352941,36.3529412 Z" id="Fill-2"></path>
            </g>
            <g id="Page-1" opacity="0.755208333" transform="translate(599.188421, 586.188421) rotate(136.000000) translate(-599.188421, -586.188421) translate(563.188421, 550.188421)" fill="#840000">
                <path d="M70.5882353,66.7058824 C62.4705882,56.8235294 68.1176471,53.2941176 59.6470588,46.2352941 C55.7647059,42.7058824 49.4117647,42.3529412 45.1764706,45.8823529 C40.5882353,50.1176471 40.9411765,56.4705882 44.8235294,61.4117647 C50.8235294,68.8235294 61.4117647,70.9411765 68.1176471,71.2941176 C70.9411765,71.2941176 72.3529412,68.4705882 70.5882353,66.7058824 L70.5882353,66.7058824 Z" id="Fill-1"></path>
                <path d="M46.2352941,36.3529412 C33.5294118,23.2941176 7.05882353,-4.23529412 1.41176471,1.41176471 C-4.23529412,7.05882353 22.5882353,32.8235294 35.6470588,45.8823529 C36,46.2352941 36.3529412,46.2352941 36.7058824,45.5294118 C37.7647059,43.7647059 38.8235294,42 40.5882353,40.5882353 C42,39.1764706 43.7647059,38.1176471 45.8823529,37.4117647 C46.5882353,37.4117647 46.5882353,36.7058824 46.2352941,36.3529412 L46.2352941,36.3529412 Z" id="Fill-2"></path>
            </g>
            <g id="Page-1" opacity="0.806216033" transform="translate(484.903934, 797.903934) rotate(170.000000) translate(-484.903934, -797.903934) translate(448.903934, 761.903934)" fill="#840000">
                <path d="M70.5882353,66.7058824 C62.4705882,56.8235294 68.1176471,53.2941176 59.6470588,46.2352941 C55.7647059,42.7058824 49.4117647,42.3529412 45.1764706,45.8823529 C40.5882353,50.1176471 40.9411765,56.4705882 44.8235294,61.4117647 C50.8235294,68.8235294 61.4117647,70.9411765 68.1176471,71.2941176 C70.9411765,71.2941176 72.3529412,68.4705882 70.5882353,66.7058824 L70.5882353,66.7058824 Z" id="Fill-1"></path>
                <path d="M46.2352941,36.3529412 C33.5294118,23.2941176 7.05882353,-4.23529412 1.41176471,1.41176471 C-4.23529412,7.05882353 22.5882353,32.8235294 35.6470588,45.8823529 C36,46.2352941 36.3529412,46.2352941 36.7058824,45.5294118 C37.7647059,43.7647059 38.8235294,42 40.5882353,40.5882353 C42,39.1764706 43.7647059,38.1176471 45.8823529,37.4117647 C46.5882353,37.4117647 46.5882353,36.7058824 46.2352941,36.3529412 L46.2352941,36.3529412 Z" id="Fill-2"></path>
            </g>
            <path d="M114.048141,580.301779 L104.298141,590.051779 C103.664391,590.685529 102.832599,591.002443 102.000807,591.002443 C101.169015,591.002443 100.337223,590.685568 99.7034735,590.051779 C98.4298895,588.781237 98.4298895,586.724611 99.7034735,585.454069 L107.153097,578.001403 L99.7034735,570.551779 C98.4298895,569.281237 98.4298895,567.224611 99.7034735,565.954069 C100.974015,564.683527 103.027599,564.683527 104.298141,565.954069 L114.048141,575.704069 C115.318683,576.974611 115.318683,579.031237 114.048141,580.301779 L114.048141,580.301779 Z M95.3312615,569.281159 L88.8323015,588.781159 C88.3783181,590.140075 87.1108415,591.002365 85.7488835,591.002365 C85.4076335,591.002365 85.0633337,590.950565 84.7220915,590.837832 C83.0188835,590.268065 82.0987175,588.424668 82.6685075,586.72458 L89.1674675,567.22458 C89.7372341,565.521372 91.5623015,564.59208 93.2776775,565.167954 C94.9808855,565.73772 95.9010515,567.577998 95.3312615,569.281206 L95.3312615,569.281159 Z M78.3662615,585.523879 C79.5941375,586.831003 79.5362615,588.887629 78.2291531,590.118547 C77.5984529,590.709639 76.8001931,591.002131 75.9988211,591.002131 C75.1365311,591.002131 74.2743191,590.660881 73.6344851,589.981423 L64.5825851,580.368703 C64.2657101,580.070111 64.0036769,579.704486 63.8239103,579.290119 C63.3089855,578.095783 63.5435939,576.715495 64.4302355,575.770993 L73.6350155,566.020993 C74.8689755,564.716911 76.9225595,564.655993 78.2296835,565.889976 C79.5368075,567.120894 79.5946835,569.17752 78.3667919,570.481602 L71.2736279,577.992144 L78.3662615,585.523879 Z M115.010661,539.000779 L62.9885615,539.000779 C55.8283947,539.000779 50,544.829485 50,551.992459 L50,604.011439 C50,611.174648 55.8287059,617 62.9885615,617 L115.010661,617 C122.170827,617 127.999221,611.174336 127.999221,604.011439 L127.999221,551.992459 C127.999221,544.829251 122.170515,539.000779 115.010661,539.000779 L115.010661,539.000779 Z" id="Page-1" fill="#BC5F00" opacity="0.803272192" transform="translate(88.999611, 578.000389) rotate(-8.000000) translate(-88.999611, -578.000389) "></path>
            <path d="M454.913134,494.816203 L448.541959,501.187377 C448.127833,501.601504 447.584295,501.808592 447.040758,501.808592 C446.49722,501.808592 445.953682,501.601529 445.539556,501.187377 C444.707328,500.357137 444.707328,499.013227 445.539556,498.182986 L450.407541,493.313013 L445.539556,488.445028 C444.707328,487.614787 444.707328,486.270877 445.539556,485.440637 C446.369796,484.610396 447.711719,484.610396 448.541959,485.440637 L454.913134,491.811811 C455.743375,492.642052 455.743375,493.985962 454.913134,494.816203 L454.913134,494.816203 Z M442.682517,487.614736 L438.435747,500.357086 C438.13909,501.245075 437.310852,501.808541 436.420876,501.808541 C436.197885,501.808541 435.972901,501.774693 435.749915,501.701027 C434.636947,501.32871 434.035661,500.124135 434.407992,499.013206 L438.654763,486.270857 C439.027079,485.157889 440.219676,484.55064 441.340595,484.926947 C442.453563,485.299263 443.054849,486.501799 442.682517,487.614767 L442.682517,487.614736 Z M431.596673,498.228604 C432.399034,499.082749 432.361214,500.426659 431.507079,501.231007 C431.094946,501.617258 430.57332,501.808388 430.04966,501.808388 C429.486194,501.808388 428.922778,501.585397 428.504676,501.141403 L422.589677,494.859934 C422.382614,494.664818 422.211388,494.425899 422.093918,494.15513 C421.757439,493.374686 421.910745,492.472732 422.490124,491.855543 L428.505023,485.484368 C429.311358,484.632211 430.653281,484.592404 431.507426,485.398755 C432.361571,486.203103 432.39939,487.547013 431.59702,488.399171 L426.961965,493.306963 L431.596673,498.228604 Z M455.542096,467.827906 L421.548057,467.827906 C416.869218,467.827906 413.060631,471.636697 413.060631,476.317369 L413.060631,510.30937 C413.060631,514.990197 416.869422,518.796795 421.548057,518.796795 L455.542096,518.796795 C460.220934,518.796795 464.02952,514.989993 464.02952,510.30937 L464.02952,476.317369 C464.02952,471.636544 460.22073,467.827906 455.542096,467.827906 L455.542096,467.827906 Z" id="Page-1" fill="#BC5F00" transform="translate(438.545076, 493.312351) rotate(-8.000000) translate(-438.545076, -493.312351) "></path>
            <path d="M354.715717,790.524133 L348.042775,797.197075 C347.609034,797.630816 347.039752,797.847713 346.47047,797.847713 C345.901188,797.847713 345.331906,797.630843 344.898165,797.197075 C344.026518,796.32751 344.026518,794.919947 344.898165,794.050382 L349.996719,788.949746 L344.898165,783.851191 C344.026518,782.981627 344.026518,781.574063 344.898165,780.704499 C345.767729,779.834935 347.173211,779.834935 348.042775,780.704499 L354.715717,787.377441 C355.585281,788.247005 355.585281,789.654569 354.715717,790.524133 L354.715717,790.524133 Z M341.905804,782.981574 L337.457888,796.327457 C337.14718,797.257505 336.279713,797.84766 335.347584,797.84766 C335.114031,797.84766 334.87839,797.812208 334.644843,797.735053 C333.47916,797.345102 332.849394,796.083473 333.239361,794.919925 L337.687277,781.574042 C338.077228,780.408359 339.326312,779.772348 340.500322,780.166478 C341.666005,780.556429 342.295771,781.815923 341.905804,782.981606 L341.905804,782.981574 Z M330.294885,794.098161 C331.135249,794.992762 331.095638,796.400325 330.201048,797.242771 C329.769394,797.647317 329.223062,797.8475 328.674599,797.8475 C328.084444,797.8475 327.494343,797.613947 327.056437,797.148923 L320.861278,790.569936 C320.644408,790.365579 320.465071,790.115343 320.342038,789.831749 C319.989621,789.01434 320.150188,788.069665 320.75701,787.423244 L327.0568,780.750302 C327.901328,779.857783 329.30681,779.81609 330.201411,780.660634 C331.096012,781.503079 331.135623,782.910643 330.295248,783.803162 L325.440657,788.943409 L330.294885,794.098161 Z M355.37447,762.257552 L319.770322,762.257552 C314.869873,762.257552 310.880895,766.246743 310.880895,771.149113 L310.880895,806.751126 C310.880895,811.653656 314.870086,815.640553 319.770322,815.640553 L355.37447,815.640553 C360.274918,815.640553 364.263896,811.653443 364.263896,806.751126 L364.263896,771.149113 C364.263896,766.246583 360.274704,762.257552 355.37447,762.257552 L355.37447,762.257552 Z" id="Page-1" fill="#BC5F00" opacity="0.598788496" transform="translate(337.572395, 788.949052) rotate(13.000000) translate(-337.572395, -788.949052) "></path>
            <path d="M717.155002,387.586761 L710.48206,394.259703 C710.048319,394.693444 709.479037,394.910341 708.909755,394.910341 C708.340473,394.910341 707.771191,394.69347 707.33745,394.259703 C706.465803,393.390138 706.465803,391.982574 707.33745,391.11301 L712.436004,386.012374 L707.33745,380.913819 C706.465803,380.044255 706.465803,378.636691 707.33745,377.767127 C708.207014,376.897562 709.612496,376.897562 710.48206,377.767127 L717.155002,384.440068 C718.024566,385.309633 718.024566,386.717196 717.155002,387.586761 L717.155002,387.586761 Z M704.345089,380.044201 L699.897173,393.390085 C699.586465,394.320133 698.718998,394.910288 697.786868,394.910288 C697.553316,394.910288 697.317675,394.874836 697.084128,394.79768 C695.918445,394.40773 695.288679,393.146101 695.678646,391.982553 L700.126562,378.63667 C700.516513,377.470987 701.765597,376.834975 702.939607,377.229106 C704.10529,377.619057 704.735056,378.878551 704.345089,380.044233 L704.345089,380.044201 Z M692.73417,391.160788 C693.574534,392.05539 693.534923,393.462953 692.640333,394.305399 C692.208679,394.709945 691.662346,394.910127 691.113884,394.910127 C690.523729,394.910127 689.933628,394.676575 689.495722,394.211551 L683.300563,387.632564 C683.083693,387.428206 682.904356,387.177971 682.781323,386.894376 C682.428906,386.076968 682.589473,385.132293 683.196295,384.485871 L689.496085,377.81293 C690.340613,376.92041 691.746095,376.878718 692.640696,377.723261 C693.535297,378.565707 693.574908,379.973271 692.734533,380.86579 L687.879942,386.006037 L692.73417,391.160788 Z M717.813755,359.32018 L682.209607,359.32018 C677.309158,359.32018 673.32018,363.309371 673.32018,368.211741 L673.32018,403.813754 C673.32018,408.716284 677.309371,412.70318 682.209607,412.70318 L717.813755,412.70318 C722.714203,412.70318 726.703181,408.716071 726.703181,403.813754 L726.703181,368.211741 C726.703181,363.309211 722.713989,359.32018 717.813755,359.32018 L717.813755,359.32018 Z" id="Page-1" fill="#BC5F00" opacity="0.660495924"></path>
            <path d="M964.834822,414.266581 L958.16188,420.939523 C957.728139,421.373264 957.158857,421.590161 956.589575,421.590161 C956.020293,421.590161 955.451011,421.373291 955.01727,420.939523 C954.145624,420.069958 954.145624,418.662395 955.01727,417.79283 L960.115824,412.692194 L955.01727,407.593639 C954.145624,406.724075 954.145624,405.316511 955.01727,404.446947 C955.886834,403.577383 957.292316,403.577383 958.16188,404.446947 L964.834822,411.119889 C965.704386,411.989453 965.704386,413.397017 964.834822,414.266581 L964.834822,414.266581 Z M952.024909,406.724022 L947.576993,420.069905 C947.266285,420.999953 946.398819,421.590108 945.466689,421.590108 C945.233136,421.590108 944.997496,421.554656 944.763948,421.477501 C943.598265,421.08755 942.9685,419.825921 943.358466,418.662373 L947.806382,405.31649 C948.196333,404.150807 949.445417,403.514796 950.619428,403.908926 C951.78511,404.298877 952.414876,405.558371 952.024909,406.724054 L952.024909,406.724022 Z M940.413991,417.840609 C941.254354,418.73521 941.214744,420.142774 940.320153,420.985219 C939.888499,421.389765 939.342167,421.589948 938.793704,421.589948 C938.203549,421.589948 937.613448,421.356395 937.175543,420.891371 L930.980384,414.312384 C930.763513,414.108027 930.584176,413.857791 930.461143,413.574197 C930.108727,412.756788 930.269294,411.812113 930.876115,411.165692 L937.175906,404.49275 C938.020433,403.600231 939.425915,403.558538 940.320516,404.403082 C941.215117,405.245527 941.254728,406.653091 940.414354,407.54561 L935.559762,412.685857 L940.413991,417.840609 Z M965.493575,386 L929.889427,386 C924.988978,386 921,389.989191 921,394.891561 L921,430.493574 C921,435.396105 924.989191,439.383001 929.889427,439.383001 L965.493575,439.383001 C970.394023,439.383001 974.383001,435.395891 974.383001,430.493574 L974.383001,394.891561 C974.383001,389.989031 970.39381,386 965.493575,386 L965.493575,386 Z" id="Page-1" fill="#BC5F00" transform="translate(947.691500, 412.691500) rotate(59.000000) translate(-947.691500, -412.691500) "></path>
            <path d="M753.769542,64.2013011 L747.0966,70.8742428 C746.662859,71.307984 746.093577,71.5248813 745.524295,71.5248813 C744.955013,71.5248813 744.385731,71.3080107 743.95199,70.8742428 C743.080343,70.0046784 743.080343,68.5971148 743.95199,67.7275504 L749.050544,62.6269139 L743.95199,57.5283594 C743.080343,56.658795 743.080343,55.2512314 743.95199,54.381667 C744.821554,53.5121026 746.227036,53.5121026 747.0966,54.381667 L753.769542,61.0546087 C754.639106,61.9241731 754.639106,63.3317367 753.769542,64.2013011 L753.769542,64.2013011 Z M740.959629,56.6587416 L736.511713,70.004625 C736.201005,70.9346729 735.333538,71.5248279 734.401409,71.5248279 C734.167856,71.5248279 733.932215,71.4893759 733.698668,71.4122207 C732.532985,71.02227 731.903219,69.7606409 732.293186,68.5970934 L736.741102,55.25121 C737.131053,54.0855272 738.380137,53.4495157 739.554147,53.8436464 C740.71983,54.2335971 741.349596,55.4930908 740.959629,56.6587736 L740.959629,56.6587416 Z M729.348711,67.7753286 C730.189074,68.6699299 730.149464,70.0774935 729.254873,70.9199391 C728.823219,71.3244848 728.276887,71.5246677 727.728424,71.5246677 C727.138269,71.5246677 726.548168,71.2911148 726.110263,70.8260908 L719.915103,64.2471041 C719.698233,64.0427466 719.518896,63.7925113 719.395863,63.5089166 C719.043446,62.691508 719.204013,61.746833 719.810835,61.1004118 L726.110626,54.42747 C726.955153,53.5349507 728.360635,53.4932582 729.255236,54.3378017 C730.149837,55.1802473 730.189448,56.5878109 729.349074,57.4803302 L724.494482,62.6205773 L729.348711,67.7753286 Z M754.428295,35.93472 L718.824147,35.93472 C713.923698,35.93472 709.93472,39.9239113 709.93472,44.8262814 L709.93472,80.4282938 C709.93472,85.3308245 713.923911,89.3177206 718.824147,89.3177206 L754.428295,89.3177206 C759.328743,89.3177206 763.317721,85.330611 763.317721,80.4282938 L763.317721,44.8262814 C763.317721,39.9237512 759.328529,35.93472 754.428295,35.93472 L754.428295,35.93472 Z" id="Page-1" fill="#BC5F00" opacity="0.581465127" transform="translate(736.626220, 62.626220) rotate(30.000000) translate(-736.626220, -62.626220) "></path>
            <path d="M505.927801,931.058525 L498.520453,938.465873 C498.038976,938.94735 497.40704,939.188119 496.775105,939.188119 C496.143169,939.188119 495.511233,938.94738 495.029756,938.465873 C494.062178,937.500606 494.062178,935.93813 495.029756,934.972864 L500.689443,929.310865 L495.029756,923.651177 C494.062178,922.685911 494.062178,921.123435 495.029756,920.158169 C495.995022,919.192902 497.555187,919.192902 498.520453,920.158169 L505.927801,927.565516 C506.893067,928.530782 506.893067,930.093259 505.927801,931.058525 L505.927801,931.058525 Z M491.708064,922.685852 L486.770622,937.500547 C486.425718,938.532954 485.462781,939.188059 484.428063,939.188059 C484.168806,939.188059 483.907232,939.148706 483.647981,939.063059 C482.354006,938.630191 481.65493,937.229711 482.087816,935.938106 L487.025257,921.123411 C487.458125,919.829436 488.84468,919.123427 490.147899,919.560935 C491.441874,919.993802 492.140949,921.391913 491.708064,922.685887 L491.708064,922.685852 Z M478.819279,935.0259 C479.752131,936.018959 479.708161,937.581435 478.715114,938.516598 C478.235953,938.965667 477.629493,939.187882 477.020668,939.187882 C476.365563,939.187882 475.710516,938.928625 475.224416,938.412421 L468.347435,931.109369 C468.106696,930.882521 467.907622,930.604745 467.771048,930.289939 C467.379845,929.382568 467.558084,928.333925 468.23169,927.61636 L475.224819,920.209013 C476.162293,919.218265 477.722458,919.171984 478.715517,920.109476 C479.708576,921.044638 479.752546,922.607115 478.819682,923.597862 L473.430807,929.303831 L478.819279,935.0259 Z M506.659054,899.681 L467.13641,899.681 C461.696631,899.681 457.268637,904.109231 457.268637,909.551143 L457.268637,949.071417 C457.268637,954.513507 461.696868,958.93919 467.13641,958.93919 L506.659054,958.93919 C512.098833,958.93919 516.526827,954.51327 516.526827,949.071417 L516.526827,909.551143 C516.526827,904.109054 512.098596,899.681 506.659054,899.681 L506.659054,899.681 Z" id="Page-1" fill="#BC5F00" opacity="0.845278533" transform="translate(486.897732, 929.310095) rotate(-18.000000) translate(-486.897732, -929.310095) "></path>
            <path d="M221.790912,324.725534 L215.431067,331.08538 C215.017677,331.49877 214.475106,331.70549 213.932534,331.70549 C213.389963,331.70549 212.847392,331.498795 212.434002,331.08538 C211.603254,330.256616 211.603254,328.915095 212.434002,328.086331 L217.293331,323.225018 L212.434002,318.365689 C211.603254,317.536925 211.603254,316.195404 212.434002,315.36664 C213.262766,314.537876 214.602303,314.537876 215.431067,315.36664 L221.790912,321.726486 C222.619676,322.55525 222.619676,323.89677 221.790912,324.725534 L221.790912,324.725534 Z M209.582044,317.536874 L205.342825,330.256565 C205.046696,331.142975 204.219931,331.705439 203.331537,331.705439 C203.108942,331.705439 202.884358,331.671651 202.661769,331.598116 C201.55078,331.226462 200.950563,330.024029 201.322233,328.915075 L205.561451,316.195384 C205.933106,315.084395 207.123582,314.478226 208.242508,314.853864 C209.353497,315.225518 209.953713,316.425916 209.582044,317.536904 L209.582044,317.536874 Z M198.515913,328.131868 C199.316846,328.984494 199.279094,330.326014 198.426478,331.128932 C198.015078,331.514497 197.494379,331.705287 196.971651,331.705287 C196.409186,331.705287 195.846772,331.482692 195.429414,331.039487 L189.524933,324.769188 C189.318238,324.574419 189.147316,324.335925 189.030056,324.065637 C188.694175,323.286581 188.847208,322.386231 189.425557,321.77014 L195.42976,315.410294 C196.234662,314.559652 197.574198,314.519916 198.426824,315.324833 C199.27945,316.127751 199.317203,317.469271 198.516259,318.319913 L193.889446,323.218979 L198.515913,328.131868 Z M222.418756,297.785229 L188.485165,297.785229 C183.814646,297.785229 180.012832,301.587246 180.012832,306.259596 L180.012832,340.191152 C180.012832,344.863655 183.814849,348.663485 188.485165,348.663485 L222.418756,348.663485 C227.089274,348.663485 230.891088,344.863452 230.891088,340.191152 L230.891088,306.259596 C230.891088,301.587094 227.089071,297.785229 222.418756,297.785229 L222.418756,297.785229 Z" id="Page-1" fill="#BC5F00" opacity="0.827955163" transform="translate(205.451960, 323.224357) rotate(13.000000) translate(-205.451960, -323.224357) "></path>
            <path d="M211.59363,103.053641 L206.218674,108.428598 C205.869302,108.77797 205.410754,108.952677 204.952205,108.952677 C204.493657,108.952677 204.035109,108.777991 203.685737,108.428598 C202.983638,107.728176 202.983638,106.594405 203.685737,105.893983 L207.792547,101.785496 L203.685737,97.6786851 C202.983638,96.9782638 202.983638,95.844492 203.685737,95.1440707 C204.386158,94.4436494 205.518253,94.4436494 206.218674,95.1440707 L211.59363,100.519027 C212.294052,101.219448 212.294052,102.35322 211.59363,103.053641 L211.59363,103.053641 Z M201.275434,96.9782208 L197.692703,107.728133 C197.442432,108.477273 196.743701,108.952634 195.992884,108.952634 C195.804761,108.952634 195.614956,108.924078 195.426837,108.861931 C194.487896,108.547831 193.980629,107.531608 194.294742,106.594387 L197.877473,95.8444748 C198.191572,94.9055344 199.197691,94.3932366 200.143339,94.710703 C201.08228,95.0248026 201.589547,96.0393062 201.275434,96.9782466 L201.275434,96.9782208 Z M191.92301,105.932468 C192.599911,106.653056 192.568005,107.786828 191.847425,108.465405 C191.499734,108.791261 191.059672,108.952505 190.617893,108.952505 C190.142532,108.952505 189.667214,108.764382 189.314488,108.389812 L184.324379,103.090535 C184.149692,102.925928 184.005239,102.724367 183.906138,102.495936 C183.622272,101.837525 183.751606,101.076603 184.240392,100.555921 L189.31478,95.1809644 C189.995035,94.4620532 191.12713,94.4284705 191.847718,95.1087379 C192.568306,95.7873154 192.600212,96.9210871 191.923303,97.6399983 L188.013,101.780392 L191.92301,105.932468 Z M212.124246,80.2853265 L183.445629,80.2853265 C179.49839,80.2853265 176.285326,83.4985613 176.285326,87.4473482 L176.285326,116.124245 C176.285326,120.073161 179.498561,123.284548 183.445629,123.284548 L212.124246,123.284548 C216.071485,123.284548 219.284548,120.072989 219.284548,116.124245 L219.284548,87.4473482 C219.284548,83.4984323 216.071313,80.2853265 212.124246,80.2853265 L212.124246,80.2853265 Z" id="Page-1" fill="#000000" transform="translate(197.784937, 101.784937) rotate(-30.000000) translate(-197.784937, -101.784937) "></path>
            <g id="Page-1" transform="translate(244.500000, 567.000000) rotate(15.000000) translate(-244.500000, -567.000000) translate(225.000000, 536.000000)" fill="#AA00AB">
                <path d="M38.9304783,19.6171351 C38.9304783,8.97072973 30.2767174,0.415567568 19.5,0.415567568 C8.72667391,0.415567568 0.0695217391,8.96737838 0.0695217391,19.6171351 C0.0695217391,23.8063243 1.48369565,27.8220811 3.77876087,30.963973 L3.9542863,31.1374305 C4.30865217,31.6610792 4.83856891,32.1847278 5.18956891,32.7083765 C7.66352543,35.6768359 12.4325472,42.1340522 12.4325472,47.5439711 L26.5641124,47.5439711 C26.5641124,42.1340522 31.3331341,35.6734846 33.8070907,32.7083765 C34.336982,32.1847278 34.6913733,31.6610792 35.0423733,31.1374305 C35.0423733,31.1407065 35.2212137,30.963973 35.2212137,30.963973 C37.5163043,27.8220811 38.9304783,23.8063243 38.9304783,19.6171351 Z" id="Fill-1"></path>
                <polygon id="Fill-2" points="12.435913 54.5315135 26.5674783 54.5315135 26.5674783 51.0394054 12.435913 51.0394054"></polygon>
                <polygon id="Fill-3" points="12.435913 61.5123784 26.5674783 61.5123784 26.5674783 58.0202703 12.435913 58.0202703"></polygon>
            </g>
            <g id="Page-1" transform="translate(907.505628, 755.703229) rotate(15.000000) translate(-907.505628, -755.703229) translate(882.505628, 716.203229)" fill="#AA00AB">
                <path d="M49.9303709,25.16 C49.9303709,11.5054292 38.8314708,0.532987102 25.0097681,0.532987102 C11.1924149,0.532987102 0.0891652601,11.5011309 0.0891652601,25.16 C0.0891652601,30.5328538 1.90291714,35.6832715 4.8464581,39.7129119 L5.07157863,39.9353803 C5.52607136,40.6069871 6.20571725,41.2785938 6.65589307,41.9502005 C9.82887147,45.7574047 15.9453908,54.0391217 15.9453908,60.9776251 L34.069861,60.9776251 C34.069861,54.0391217 40.1863804,45.7531065 43.3593588,41.9502005 C44.0389721,41.2785938 44.4934974,40.6069871 44.9436732,39.9353803 C44.9436732,39.9395819 45.1730454,39.7129119 45.1730454,39.7129119 C48.116619,35.6832715 49.9303709,30.5328538 49.9303709,25.16 Z" id="Fill-1"></path>
                <polygon id="Fill-2" points="15.9497077 69.9395131 34.0741779 69.9395131 34.0741779 65.4607021 15.9497077 65.4607021"></polygon>
                <polygon id="Fill-3" points="15.9497077 78.8928368 34.0741779 78.8928368 34.0741779 74.4140258 15.9497077 74.4140258"></polygon>
            </g>
            <g id="Page-1" transform="translate(960.769278, 247.875950) rotate(-14.000000) translate(-960.769278, -247.875950) translate(944.269278, 222.375950)" fill="#AA00AB">
                <path d="M32.0567084,16.1534307 C32.0567084,7.38681055 24.9309011,0.342192774 16.0569775,0.342192774 C7.18584651,0.342192774 0.0572466155,7.38405093 0.0572466155,16.1534307 C0.0572466155,19.6029546 1.22172655,22.9096682 3.11156299,25.4968112 L3.25609674,25.6396422 C3.5478939,26.0708327 3.98424576,26.5020232 4.27327136,26.9332137 C6.31041311,29.3775463 10.2373913,34.6946425 10.2373913,39.1493577 L21.8738131,39.1493577 C21.8738131,34.6946425 25.8007913,29.3747867 27.8379331,26.9332137 C28.274264,26.5020232 28.5660821,26.0708327 28.8551077,25.6396422 C28.8551077,25.6423397 29.0023711,25.4968112 29.0023711,25.4968112 C30.8922285,22.9096682 32.0567084,19.6029546 32.0567084,16.1534307 Z" id="Fill-1"></path>
                <polygon id="Fill-2" points="10.2401629 44.9031429 21.8765847 44.9031429 21.8765847 42.0276198 10.2401629 42.0276198"></polygon>
                <polygon id="Fill-3" points="10.2401629 50.6514296 21.8765847 50.6514296 21.8765847 47.7759065 10.2401629 47.7759065"></polygon>
            </g>
            <g id="Page-1" transform="translate(690.907671, 927.874452) rotate(-28.000000) translate(-690.907671, -927.874452) translate(661.407671, 881.374452)" fill="#AA00AB">
                <path d="M58.3652659,29.4103582 C58.3652659,13.4490777 45.3913936,0.623026294 29.2347471,0.623026294 C13.0831849,0.623026294 0.104228229,13.4440533 0.104228229,29.4103582 C0.104228229,35.6908652 2.22438293,41.7113592 5.66518555,46.4217394 L5.92833641,46.6817901 C6.45960803,47.4668535 7.25406864,48.2519168 7.78029408,49.0369802 C11.4892937,53.4873475 18.639096,63.1681209 18.639096,71.2787677 L39.8253901,71.2787677 C39.8253901,63.1681209 46.9751924,53.4823231 50.684192,49.0369802 C51.4786145,48.2519168 52.0099243,47.4668535 52.5361497,46.6817901 C52.5361497,46.6867014 52.8042705,46.4217394 52.8042705,46.4217394 C56.2451112,41.7113592 58.3652659,35.6908652 58.3652659,29.4103582 Z" id="Fill-1"></path>
                <polygon id="Fill-2" points="18.6441422 81.7546157 39.8304363 81.7546157 39.8304363 76.519185 18.6441422 76.519185"></polygon>
                <polygon id="Fill-3" points="18.6441422 92.2204525 39.8304363 92.2204525 39.8304363 86.9850219 18.6441422 86.9850219"></polygon>
            </g>
            <g id="Page-1" transform="translate(574.877382, 430.971754) rotate(103.000000) translate(-574.877382, -430.971754) translate(545.377382, 384.471754)" fill="#AA00AB">
                <path d="M58.3652659,29.4103582 C58.3652659,13.4490777 45.3913936,0.623026294 29.2347471,0.623026294 C13.0831849,0.623026294 0.104228229,13.4440533 0.104228229,29.4103582 C0.104228229,35.6908652 2.22438293,41.7113592 5.66518555,46.4217394 L5.92833641,46.6817901 C6.45960803,47.4668535 7.25406864,48.2519168 7.78029408,49.0369802 C11.4892937,53.4873475 18.639096,63.1681209 18.639096,71.2787677 L39.8253901,71.2787677 C39.8253901,63.1681209 46.9751924,53.4823231 50.684192,49.0369802 C51.4786145,48.2519168 52.0099243,47.4668535 52.5361497,46.6817901 C52.5361497,46.6867014 52.8042705,46.4217394 52.8042705,46.4217394 C56.2451112,41.7113592 58.3652659,35.6908652 58.3652659,29.4103582 Z" id="Fill-1"></path>
                <polygon id="Fill-2" points="18.6441422 81.7546157 39.8304363 81.7546157 39.8304363 76.519185 18.6441422 76.519185"></polygon>
                <polygon id="Fill-3" points="18.6441422 92.2204525 39.8304363 92.2204525 39.8304363 86.9850219 18.6441422 86.9850219"></polygon>
            </g>
        </g>
    </g>
</svg>